<svg width="815" height="378" viewBox="0 0 815 378" fill="none" xmlns="http://www.w3.org/2000/svg">
<path d="M809.247 115.949H665.618C665.18 115.948 664.749 115.845 664.359 115.647C663.968 115.449 663.63 115.163 663.37 114.81L627.87 66.4431C609.494 41.428 593.336 24.3569 579.82 15.7179C572.855 11.2549 563.534 7.88553 552.139 5.68771C540.996 3.54917 527.464 2.45898 511.954 2.45898H488.973C487.026 2.45898 485.664 4.40459 486.361 6.24094L486.947 7.79138L499.576 41.3339L499.861 42.0777C500.062 42.608 500.419 43.0646 500.886 43.3866C501.353 43.7087 501.907 43.8809 502.474 43.8804H530.107C552.122 43.8804 569.041 46.2061 580.358 50.7958C591.499 55.3041 603.686 66.1421 616.617 82.9924L638.347 111.44C639.756 113.276 638.443 115.933 636.131 115.933H5.12718C4.38444 115.934 3.67248 116.23 3.14728 116.755C2.62208 117.28 2.32649 117.991 2.32526 118.734V149.08C2.32679 149.823 2.62253 150.534 3.14769 151.059C3.67285 151.584 4.38464 151.879 5.12718 151.88H158.173C158.885 151.88 159.566 152.15 160.073 152.624C170.772 162.672 176.184 172.908 176.184 183.066C176.184 195.311 170.914 204.108 160.089 209.994C148.63 216.228 127.802 219.518 98.1732 219.788L96.2746 219.804C94.1691 219.819 92.8391 222.066 93.8366 223.917L94.7388 225.595L110.725 255.387L111.056 256.02C111.301 256.475 111.667 256.854 112.114 257.114C112.561 257.373 113.072 257.504 113.588 257.491L114.301 257.475C132.914 256.985 148.819 254.374 161.64 249.707C162.099 249.541 162.594 249.499 163.075 249.585C163.555 249.671 164.005 249.882 164.378 250.197C171.23 255.91 176.517 262.174 180.109 268.867C184.192 276.43 186.25 284.831 186.25 293.787C186.25 305.241 181.993 314.134 173.257 320.969C164.22 328.041 154.075 331.491 142.219 331.491C130.176 331.491 118.02 326.538 106.119 316.792C93.8215 306.729 80.5106 290.385 66.5986 268.219L36.5913 220.642L36.0053 219.709C35.6216 219.099 35.0167 218.661 34.3173 218.487C33.618 218.313 32.8784 218.417 32.2535 218.776L31.3048 219.329L23.0107 224.076L21.9666 224.63C21.6403 224.817 21.3552 225.068 21.1281 225.368C20.9011 225.668 20.7368 226.01 20.6453 226.375C20.5537 226.74 20.5366 227.119 20.595 227.491C20.6534 227.862 20.7862 228.218 20.9854 228.537L21.6179 229.55L52.2123 278.503C75.6195 315.873 94.0436 339.085 108.54 349.48C123.101 359.922 138.627 365.223 154.676 365.223C172.987 365.223 188.418 359.669 200.542 348.705C212.808 337.645 219.028 323.421 219.028 306.413C219.028 293.043 215.372 280.291 208.187 268.535C202.394 259.073 194.179 250.055 183.718 241.67C183.392 241.41 183.128 241.08 182.945 240.705C182.763 240.33 182.667 239.919 182.664 239.501C182.661 239.084 182.751 238.672 182.928 238.294C183.105 237.916 183.364 237.583 183.687 237.318C188.894 233.031 193.088 228.063 196.221 222.494C200.748 214.424 203.043 204.947 203.043 194.315C203.043 179.726 198.548 167.053 189.622 156.485C188.086 154.665 189.368 151.88 191.742 151.88H562.663C563.031 151.879 563.396 151.952 563.736 152.092C564.076 152.233 564.385 152.439 564.645 152.699C564.906 152.959 565.112 153.268 565.253 153.608C565.393 153.949 565.465 154.313 565.465 154.681V188.176C565.463 188.918 565.167 189.63 564.642 190.154C564.117 190.679 563.405 190.975 562.663 190.976H449.77C447.269 190.976 446.034 194.014 447.807 195.755L449.801 197.732C474.27 221.798 488.814 237.983 493.009 245.831C497.092 253.425 499.165 259.944 499.165 265.197C499.165 272.031 497.108 277.332 492.882 281.383C488.593 285.496 483.165 287.489 476.263 287.489C466.688 287.489 455.262 281.351 442.346 269.215C432.122 259.628 421.265 243.457 410.075 221.164L410.044 221.101L397.255 193.27L396.955 192.606C396.734 192.12 396.378 191.708 395.929 191.419C395.48 191.13 394.957 190.976 394.423 190.976H288.54C286.039 190.976 284.805 194.014 286.578 195.755L288.588 197.732C313.056 221.798 327.601 237.983 331.796 245.831C335.879 253.425 337.952 259.944 337.952 265.197C337.952 272.031 335.894 277.332 331.669 281.383C327.379 285.496 321.951 287.489 315.05 287.489C305.475 287.489 294.048 281.351 281.133 269.215C267.839 256.748 253.563 233.268 238.717 199.457L238.194 198.254C238.033 197.891 237.797 197.566 237.501 197.301C237.205 197.037 236.856 196.838 236.477 196.718C236.099 196.598 235.699 196.561 235.305 196.607C234.91 196.654 234.53 196.784 234.19 196.988L233.067 197.653L225.169 202.4L224.362 202.89C223.806 203.221 223.383 203.736 223.167 204.345C222.95 204.955 222.953 205.621 223.175 206.228L223.491 207.115C236.374 243.189 251.442 271.906 268.281 292.458C276.844 302.932 285.691 310.922 294.555 316.222C303.639 321.649 312.993 324.402 322.362 324.402C337.461 324.402 350.123 319.402 359.999 309.53C369.859 299.673 374.876 287.141 374.876 272.301C374.876 264.184 372.486 255.609 367.786 246.811C365.096 241.765 361.597 236.559 357.325 231.258C355.853 229.439 357.15 226.717 359.493 226.717H390.307C391.431 226.717 392.46 227.398 392.887 228.442C403.776 254.611 416.073 276.129 429.463 292.474C438.026 302.948 446.873 310.937 455.736 316.238C464.821 321.665 474.19 324.418 483.56 324.418C498.659 324.418 511.32 319.418 521.197 309.545C531.072 299.688 536.074 287.158 536.074 272.316C536.074 264.2 533.684 255.625 528.999 246.828C526.309 241.78 522.795 236.574 518.538 231.258C517.066 229.439 518.363 226.717 520.706 226.717H562.663C563.031 226.717 563.396 226.789 563.736 226.929C564.076 227.07 564.385 227.276 564.645 227.536C564.906 227.797 565.112 228.106 565.253 228.446C565.393 228.786 565.465 229.15 565.465 229.518V348.167C565.465 348.863 565.733 349.543 566.209 350.064L566.509 350.397L589.41 375.254L589.759 375.633C590.297 376.202 591.041 376.535 591.817 376.535H601.771C602.514 376.534 603.225 376.238 603.751 375.713C604.276 375.189 604.572 374.477 604.573 373.735V154.712C604.574 153.97 604.87 153.259 605.395 152.734C605.92 152.209 606.631 151.914 607.374 151.913H644.251C644.994 151.914 645.705 152.209 646.23 152.734C646.755 153.259 647.051 153.97 647.052 154.712V345.571C647.052 346.236 647.29 346.885 647.733 347.391L648.018 347.724L671.711 375.142L672.059 375.539C672.581 376.155 673.356 376.503 674.164 376.503H683.106C683.849 376.502 684.561 376.207 685.086 375.682C685.611 375.157 685.907 374.445 685.908 373.702V154.681C685.909 153.939 686.205 153.227 686.73 152.702C687.255 152.177 687.966 151.882 688.709 151.88H810.434C811.177 151.879 811.888 151.583 812.414 151.059C812.938 150.534 813.234 149.822 813.235 149.08V118.734C813.234 117.992 812.939 117.28 812.414 116.755C811.889 116.23 811.177 115.934 810.434 115.933L809.247 115.949Z" fill="#FFFCF7" stroke="black" stroke-width="2.6806" stroke-miterlimit="10"/>
</svg>
