<svg width="1403" height="946" viewBox="0 0 1403 946" fill="none" xmlns="http://www.w3.org/2000/svg">
<g clip-path="url(#clip0_1_503)" filter="url(#filter0_d_1_503)">
<path d="M1087.69 685.554C1090.59 683.277 1093.52 681.041 1096.38 678.711C1114.18 664.182 1134.02 653.365 1155.79 646.129C1166.78 642.472 1177.95 639.328 1189 635.84C1194.88 633.985 1200.76 632.068 1206.51 629.869C1213.44 627.222 1220.17 624.127 1225.71 618.968C1226.24 618.47 1226.88 618.057 1227.53 617.72C1228.72 617.098 1230.06 617.059 1230.94 618.063C1231.7 618.915 1232.56 620.201 1232.43 621.18C1232.19 623.09 1231.44 624.979 1230.66 626.776C1226.6 636.194 1220.58 644.288 1213.63 651.74C1206.2 659.711 1197.86 666.665 1189.39 673.499C1178.96 681.923 1169.64 691.392 1162.37 702.765C1158.35 709.061 1155.2 715.746 1153.61 723.051C1152.92 726.152 1152.52 729.403 1152.6 732.57C1152.73 738.399 1155.65 741.644 1161.34 742.823C1168.61 744.332 1175.19 742.518 1180.61 737.66C1184.44 734.225 1188.02 730.342 1191.01 726.156C1195.31 720.125 1199.25 713.852 1202.83 707.366C1207.71 698.507 1212.09 689.368 1216.7 680.359C1224.36 665.381 1232.75 650.853 1243.54 637.859C1264.17 613.03 1288.88 593.256 1317.54 578.42C1329.21 572.374 1341.68 568.445 1354.21 564.641C1361.52 562.421 1368.88 560.331 1376.13 557.893C1381.79 555.99 1387.55 555.007 1393.44 554.244C1400.04 553.391 1406.57 552.02 1413.11 550.841C1413.83 550.714 1414.53 550.417 1415.21 550.113C1416.39 549.586 1417.55 548.721 1417.08 547.364C1416.73 546.331 1415.77 545.206 1414.79 544.775C1413.78 544.337 1412.4 544.521 1411.23 544.728C1405.39 545.746 1399.58 546.831 1393.78 547.982C1390.83 548.57 1388.62 547.839 1386.56 545.522C1376.46 534.158 1374.04 521.28 1378.54 506.912C1380.95 499.231 1385.3 492.667 1390.28 486.49C1402.93 470.81 1418.27 458.728 1437.18 451.411C1445.01 448.385 1452.79 445.278 1460.53 442.034C1465.77 439.845 1470.95 437.515 1476.01 434.955C1484.82 430.495 1490.29 423.024 1493.96 414.081C1495.98 409.129 1496.1 404.026 1495.12 398.794C1494.06 393.222 1493.33 387.596 1492.31 382.018C1490.93 374.465 1492.37 367.312 1495.04 360.282C1498.36 351.603 1503.43 344.081 1509.97 337.538C1522.09 325.401 1535.56 315.102 1550.91 307.307C1558.83 303.284 1566.7 299.151 1574.48 294.864C1588.38 287.207 1601.11 277.846 1613.17 267.597C1624.57 257.909 1633.68 246.256 1641.24 233.39C1642.73 230.851 1643.6 227.953 1645.02 225.369C1645.83 223.917 1647.03 222.598 1648.31 221.535C1649.64 220.424 1652.04 221.416 1652.5 223.097C1652.75 224.042 1652.89 225.027 1653.01 225.999C1655.03 241.804 1654.83 257.56 1651.09 273.092C1646.16 293.518 1635.64 310.925 1621.31 326.069C1615.37 332.344 1609.06 338.275 1602.9 344.335C1596.54 350.587 1590.73 357.302 1585.87 364.793C1584.26 367.27 1582.66 369.802 1581.46 372.487C1577.04 382.412 1577.12 391.991 1583.55 401.273C1588.6 408.578 1593.37 416.088 1597.97 423.688C1602.59 431.317 1606.1 439.465 1608.26 448.175C1611.69 461.96 1611.34 475.548 1606.52 488.968C1597.83 513.134 1582.39 531.804 1560.54 545.149C1557.63 546.925 1554.34 548.223 1551.05 549.177C1533.75 554.198 1516.32 558.631 1498.46 561.24C1495.8 561.628 1493.15 562.327 1490.6 563.169C1489.93 563.389 1489.18 564.739 1489.27 565.475C1489.37 566.216 1490.4 567.37 1491.1 567.423C1494.01 567.662 1497.04 567.999 1499.89 567.496C1509.35 565.813 1518.79 563.934 1528.17 561.863C1534.67 560.438 1541.08 558.625 1547.52 556.913C1549.93 556.271 1551.98 556.718 1553.48 558.693C1555.41 561.23 1557.62 563.685 1558.96 566.526C1565 579.337 1566.17 592.517 1561.46 606.093C1558.1 615.813 1553.11 624.488 1546.04 631.967C1539.23 639.17 1531.84 645.726 1523.74 651.414C1506.96 663.184 1490.05 674.761 1473.26 686.514C1465.58 691.892 1457.95 697.35 1450.49 703.038C1443.6 708.287 1437.35 714.273 1431.64 720.793C1427.05 726.02 1423.21 731.737 1420.25 738.046C1417.88 743.095 1417.31 748.385 1417.4 753.912C1417.49 760.162 1424.32 766.652 1431.75 765.792C1434.66 765.456 1437.6 764.674 1440.32 763.579C1453 758.481 1464.82 751.826 1475.03 742.666C1478.86 739.224 1482.15 735.154 1485.62 731.326C1486.78 730.049 1487.7 728.55 1488.87 727.289C1491.31 724.671 1494.5 725.235 1495.94 728.623C1496.71 730.441 1497.24 732.349 1497.53 734.301C1499.71 749.064 1496.68 762.774 1488.91 775.457C1483.45 784.393 1476.6 792.153 1468.24 798.479C1463.52 802.052 1458.59 805.339 1453.71 808.69C1447.59 812.88 1441.37 816.893 1435.34 821.184C1430.08 824.911 1425.61 829.655 1422.22 835.136C1419.18 840.029 1417.25 845.264 1416.86 851.106C1416.36 858.759 1414.76 866.236 1412.64 873.616C1411.39 877.978 1409.38 881.937 1406.38 885.259C1402.91 889.099 1399.15 892.668 1395.46 896.316C1393.06 898.699 1390.11 899.612 1386.73 899.66C1373.64 899.841 1360.56 900.263 1347.48 900.369C1322.04 900.569 1296.6 900.581 1271.17 900.736C1235.37 900.949 1199.56 901.209 1163.76 901.465C1128.45 901.716 1093.14 901.979 1057.84 902.252C1023.26 902.519 988.696 902.81 954.125 903.064C922.025 903.302 889.925 903.494 857.825 903.732C819.304 904.018 780.786 904.337 742.265 904.627C706.464 904.895 670.658 905.138 634.853 905.402C599.789 905.663 564.729 905.946 529.664 906.204C494.356 906.46 459.043 906.687 423.734 906.941C387.929 907.201 352.128 907.473 316.322 907.746C281.755 908.012 247.183 908.3 212.616 908.554C180.268 908.789 147.923 908.97 115.58 909.202C76.3162 909.485 37.0586 909.769 -2.20386 910.102C-30.349 910.343 -58.4979 910.675 -86.644 910.923C-89.607 910.945 -92.569 910.801 -95.5158 910.49C-96.9786 910.331 -98.393 909.872 -99.6708 909.141C-102.937 907.239 -103.23 902.747 -100.306 900.376C-99.3598 899.611 -98.2273 899.071 -97.1588 898.472C-78.2478 887.835 -63.0956 873.286 -51.769 854.779C-45.0565 843.81 -39.6093 832.17 -34.1232 820.571C-32.1276 816.356 -30.8498 811.792 -29.357 807.344C-14.6349 763.502 6.48485 722.901 32.5171 684.759C45.8907 665.161 59.7971 645.997 75.3426 628.037C90.0918 611 106.386 595.575 123.211 580.64C152.509 554.633 185.924 535.299 221.495 519.401C225.548 517.591 229.687 515.969 233.809 514.319C249.152 508.175 264.593 502.263 279.831 495.872C297.363 488.524 314.43 480.167 331.31 471.421C340.192 466.821 347.593 460.333 354.917 453.682C368.567 441.288 379.495 426.711 389.406 411.276C398.47 397.144 407.603 383.056 416.804 369.012C425.785 355.313 436.593 343.128 448.429 331.853C451.638 328.799 455.094 325.957 458.678 323.35C470.484 314.772 482.917 307.215 496.064 300.845C511.186 293.516 526.798 287.4 542.68 281.948C550.845 279.143 558.97 276.222 567.168 273.523C578.718 269.723 589.6 264.517 600.014 258.309C610.148 252.267 618.698 244.619 624.378 234.055C627.067 229.055 630.063 224.225 632.773 219.236C643.271 199.893 657.233 183.348 673.781 168.998C690.287 154.686 709.512 145.365 730.443 139.455C737.8 137.373 745.282 135.759 752.842 134.62C759.656 133.595 766.393 131.949 773.075 130.24C776.449 129.378 778.833 130.475 781.029 132.711C782.158 133.864 781.851 136.575 780.392 137.277C778.86 138.015 777.211 138.626 775.549 138.943C752.915 143.253 734.512 155.218 717.99 170.62C710.83 177.297 705.644 185.366 701.495 194.132C696.514 204.649 692.576 215.485 690.437 227.01C688.592 236.954 685.922 246.739 682.343 256.228C677.498 269.073 670.073 280.38 661.593 291.084C652.247 302.887 640.864 312.224 627.63 319.269C618.921 323.902 610.003 328.139 601.173 332.54C592.562 336.835 583.901 341.029 575.341 345.424C568.92 348.72 563.313 353.179 558.293 358.35C556.747 359.938 555.347 361.673 553.928 363.381C547.818 370.764 545.961 379.111 548.458 388.367C550.462 395.775 551.134 403.48 550.444 411.122C549.267 424.422 543.834 435.291 532.244 442.558C529.529 444.26 526.737 445.846 523.979 447.481C519.52 450.116 514.967 452.609 510.622 455.424C507.695 457.323 504.691 458.795 501.356 459.892C490.949 463.317 481.376 468.394 473.066 475.61C470.661 477.697 468.593 480.19 466.49 482.6C465.877 483.3 465.371 484.357 465.366 485.254C465.36 486.097 465.924 487.095 466.535 487.735C466.943 488.161 468.108 488.455 468.54 488.182C471.024 486.607 473.576 485.054 475.754 483.102C480.763 478.618 486.31 474.98 492.222 471.853C493.09 471.395 494.018 471.051 494.946 470.719C495.979 470.349 496.226 471.176 496.268 471.854C497.381 489.764 490.111 504.073 476.875 515.499C471.287 520.321 465.072 524.435 459.012 528.684C450.926 534.352 442.623 539.713 435.252 546.344C427.852 553 421.524 560.536 416.413 569.074C414.244 572.698 412.465 576.478 412.437 580.858C412.412 584.688 414.427 587.574 418.182 588.357C420.064 588.75 422.111 588.813 424.016 588.549C428.942 587.873 433.547 586.047 438.048 584C463.207 572.559 483.339 555.244 498.461 532.114C501.431 527.566 504.362 522.985 507.109 518.304C519.99 496.346 536.446 477.473 555.778 460.974C566.506 451.818 577.481 443.052 589.604 435.802C590.866 435.046 592.092 434.037 593.467 433.727C594.479 433.497 596.07 433.875 596.733 434.598C597.404 435.335 597.517 436.854 597.375 437.971C597.268 438.844 596.496 439.71 595.849 440.418C594.851 441.509 593.752 442.516 592.618 443.469C583.032 451.508 575.784 461.478 569.131 471.924C564.183 479.692 560.7 488.132 558.519 497.06C556.298 506.163 554.367 515.34 552.336 524.493C550.568 532.469 548.171 540.23 544.791 547.68C541.076 555.865 535.971 563.071 529.837 569.607C523.482 576.377 515.943 581.4 507.509 585.171C499.625 588.693 491.723 592.181 483.895 595.825C481.222 597.068 478.665 598.61 476.219 600.255C475.051 601.044 474.063 602.29 473.383 603.542C472.996 604.253 473.075 605.621 473.535 606.275C473.986 606.911 475.335 607.478 476.04 607.261C478.615 606.462 481.116 605.401 483.58 604.299C487.856 602.385 492.08 600.354 496.338 598.399C496.745 598.214 497.371 598.028 497.663 598.211C497.955 598.395 498.167 599.101 498.061 599.476C494.346 612.518 490.56 625.536 486.841 638.576C482.476 653.895 473.465 665.93 460.908 675.479C454.002 680.729 446.704 685.43 438.683 688.692C432.777 691.094 426.573 692.909 420.356 694.391C401.358 698.918 382.182 702.248 362.53 701.855C360.368 701.814 358.175 702.336 356.039 702.809C355.523 702.922 354.903 703.842 354.848 704.436C354.798 705.026 355.255 705.873 355.76 706.248C356.517 706.811 357.486 707.292 358.409 707.393C362.32 707.83 366.207 708.237 370.193 708.124C384.559 707.713 398.682 705.544 412.708 702.668C415.588 702.076 417.506 702.877 419.257 704.822C421.985 707.841 423.642 711.328 423.89 715.466C424.226 721.007 423.376 726.267 420.842 731.266C418.141 736.608 414.815 741.526 410.396 745.538C404.552 750.846 398.465 755.887 392.46 761.016C388.515 764.379 384.448 767.605 380.576 771.052C375.384 775.673 370.785 780.853 367.372 786.937C364.242 792.524 362.917 798.423 365.305 804.718C366.949 809.047 369.537 812.645 373.894 814.409C377.058 815.689 380.438 817.017 383.783 817.193C406.524 818.39 426.664 811.804 443.471 796.129C449.155 790.827 453.208 784.261 455.789 776.974C458.585 769.075 460.878 760.998 463.349 752.987C465.385 746.386 467.128 739.688 469.418 733.178C475.14 716.915 484.048 702.5 495.241 689.418C515.7 665.513 541.089 648.358 569.246 634.938C584.633 629.561 597.786 620.373 610.372 610.372C615.954 605.938 620.868 600.663 626.067 595.751C627.142 594.736 628.071 593.57 629.188 592.609C630.199 591.738 632.247 591.805 633.386 592.58C634.512 593.345 634.854 594.496 634.856 595.781C634.856 596.27 634.843 596.784 634.7 597.248C631.147 609.051 628.251 621.079 622.013 631.917C615.833 642.649 608.976 652.865 600.737 662.151C596.481 666.95 592.424 671.937 588.473 676.99C580.17 687.621 576.108 699.849 574.821 713.199C574.208 719.569 573.083 725.904 571.888 732.199C569.234 746.164 562.656 758.15 553.007 768.497C551.154 770.484 549.19 772.362 547.323 774.336C547.023 774.653 546.955 775.197 546.782 775.637C547.217 775.735 547.716 776.013 548.081 775.896C550.421 775.127 552.828 774.472 555.031 773.409C566.423 767.909 576.998 761.147 586.511 752.76C605.833 735.729 619.537 714.928 628.346 690.8C635.37 671.557 642.29 652.275 649.463 633.09C656.12 615.285 663.005 597.563 671.995 580.756C678.762 568.101 686.438 556.027 694.957 544.488C708.02 526.792 724.031 512.257 742.554 500.476C750.05 495.711 757.574 490.936 765.39 486.742C771.025 483.717 774.54 479.334 776.468 473.518C777.627 470.017 778.474 466.395 779.215 462.775C784.925 435.025 797.497 410.736 816.337 389.713C827.639 377.098 840.753 366.697 856.106 359.311C862.998 355.995 869.92 352.738 876.829 349.452C881.063 347.438 885.313 345.453 889.524 343.397C897.825 339.35 905.061 333.866 911.502 327.259C916.38 322.253 920.425 316.719 923.182 310.274C924.831 306.415 926.615 302.614 928.21 298.734C934.896 282.449 945.166 268.727 957.9 256.713C980.074 235.797 1005.91 221.447 1035.24 213.329C1042.89 211.212 1050.69 210.125 1058.62 209.859C1062.06 209.743 1065.49 209.205 1068.94 208.968C1072.38 208.728 1075.83 208.684 1079.28 208.444C1082.99 208.192 1085.23 210.385 1087.2 213.04C1088.19 214.367 1087.79 216.742 1086.26 217.622C1084.35 218.716 1082.32 219.604 1080.26 220.413C1074.75 222.58 1069.09 224.399 1063.71 226.823C1043.69 235.83 1025.99 248.24 1010.25 263.527C999.226 274.234 991.263 286.805 986.477 301.41C982.941 312.197 979.599 323.054 975.724 333.717C970.121 349.137 961.981 363.259 952.242 376.408C941.619 390.753 927.878 401.617 912.253 409.941C903.323 414.697 897.937 421.652 895.193 431.149C892.362 440.943 891.061 450.933 890.941 461.094C890.873 466.777 890.915 472.459 890.838 478.138C890.793 481.348 890.642 484.555 890.474 487.762C890.171 493.535 888.492 498.865 885.58 503.883C878.091 516.795 869.035 528.47 858.083 538.6C849.74 546.321 840.921 553.499 831.429 559.776C827.319 562.492 822.916 564.76 818.709 567.338C817.268 568.222 815.942 569.345 814.752 570.546C814.388 570.912 814.422 572.01 814.692 572.572C814.962 573.135 815.738 573.769 816.319 573.798C817.511 573.852 818.841 573.791 819.894 573.302C823.686 571.536 827.539 569.819 831.088 567.63C842.473 560.605 852.76 552.119 862.677 543.176C863.777 542.183 864.85 541.159 865.89 540.104C867.21 538.767 868.812 538.417 870.623 538.512C875.759 538.782 880.238 540.616 883.989 544.128C888.215 548.083 891.226 552.823 893.102 558.314C896.221 567.416 896.469 576.715 894.91 586.095C892.794 598.871 888.106 610.796 882.65 622.462C874.333 640.233 863.422 656.375 851.554 671.901C846.457 678.567 841.123 685.055 835.892 691.627C831.869 696.68 827.111 700.989 822.094 705.011C812.069 713.049 801.711 720.621 790.575 727.081C787.8 728.691 785.132 730.482 782.456 732.251C781.647 732.784 780.835 733.432 780.298 734.215C779.948 734.723 779.805 735.722 780.083 736.221C780.378 736.758 781.296 737.307 781.89 737.256C783.337 737.13 784.859 736.886 786.164 736.283C789.517 734.73 792.94 733.22 796.028 731.219C803.686 726.25 811.543 721.478 818.602 715.739C823.906 711.42 829.341 711.178 835.238 712.453C843.312 714.195 847.738 720.364 847.296 728.708C847.043 733.469 845.412 737.864 843.386 742.126C838.889 751.569 832.779 759.941 826.004 767.823C821.014 773.625 815.795 779.232 810.546 784.805C805.975 789.656 801.131 794.253 796.592 799.138C794.564 801.32 791.446 802.777 791.172 806.314C794.297 806.819 796.843 805.092 799.56 804.098C807.034 801.366 813.917 797.461 820.279 792.754C829.208 786.15 837.929 779.255 846.751 772.507C856.767 764.849 867.055 757.596 878.543 752.255C882.118 750.592 885.765 749.059 889.476 747.744C892.017 746.843 894.698 746.113 897.37 745.864C902.276 745.408 906.603 746.582 909.599 751.077C911.846 754.451 912.005 754.339 914.374 750.95C919.394 743.754 922.678 735.812 924.268 727.206C925.882 718.473 927.251 709.697 928.869 700.964C932.049 683.819 938.135 667.709 946.578 652.493C949.451 647.315 952.615 642.294 955.766 637.276C969.191 615.896 987.204 599.293 1009.15 587.022C1021.85 579.919 1034.88 573.394 1047.8 566.697C1062.7 558.978 1077.75 551.544 1092.55 543.632C1108.48 535.113 1123.36 524.946 1137.17 513.256C1139.6 511.189 1141.84 508.879 1144.14 506.665C1144.31 506.512 1144.48 506.178 1144.41 506.035C1144.33 505.859 1144.02 505.706 1143.78 505.695C1143.31 505.665 1142.8 505.661 1142.33 505.775C1135.99 507.309 1129.58 506.863 1123.17 506.595C1122.43 506.563 1121.69 506.493 1120.96 506.364C1107.38 503.95 1101.36 493.999 1102.46 482.799C1102.94 477.836 1104.37 473.145 1106.43 468.609C1110.79 458.965 1117.63 451.226 1125.17 444.026C1133.24 436.324 1142.15 429.681 1151.52 423.687C1161.71 417.173 1172.1 410.948 1182.21 404.324C1190.26 399.057 1198.25 393.638 1205.9 387.81C1214.96 380.905 1223.14 373.021 1229.6 363.512C1231.99 360.009 1233.87 356.303 1234.92 352.18C1241.28 327.448 1254.15 306.33 1271.04 287.504C1283.64 273.459 1298.1 261.557 1313.64 250.892C1329.13 240.253 1345.56 231.19 1361.98 222.106C1376.45 214.104 1391.02 206.249 1405.16 197.697C1421.08 188.065 1435.33 176.249 1447.53 162.098C1453.37 155.341 1458.46 148.066 1462.69 140.211C1464.41 137.003 1466.18 133.776 1465.13 129.728C1464.52 127.403 1466.26 125.54 1467.87 123.968C1469.21 122.656 1472.22 123.386 1472.91 125.166C1473.25 126.069 1473.52 127.057 1473.56 128.022C1473.74 132.463 1473.86 136.907 1473.96 141.35C1474.16 150.598 1472.23 159.48 1469.44 168.24C1464.09 185.069 1456.13 200.622 1446.68 215.471C1438.04 229.053 1428.07 241.607 1417.33 253.572C1401.97 270.684 1385.33 286.517 1368.66 302.326C1362.39 308.27 1356.32 314.414 1350.29 320.612C1340.07 331.141 1333.86 343.942 1329.85 357.896C1328.21 363.584 1326.79 369.337 1325.38 375.089C1320.01 397.15 1309.17 416.29 1294.57 433.501C1285.26 444.477 1274.99 454.375 1263.37 462.902C1259.75 465.568 1255.91 467.604 1251.52 468.726C1239.82 471.719 1228.2 475.094 1216.11 476.27C1214.69 476.408 1213.26 477.03 1211.95 477.677C1211.44 477.929 1210.98 478.864 1211 479.466C1211.03 480.081 1211.55 480.974 1212.08 481.214C1213.16 481.698 1214.4 481.966 1215.61 482.066C1221.59 482.569 1227.39 481.179 1233.18 479.965C1237.76 479.006 1242.28 477.748 1246.81 476.561C1248.86 476.026 1250.64 476.341 1252.4 477.574C1262.51 484.64 1268.34 494.273 1269.58 506.537C1270.93 519.858 1268.69 532.598 1262.92 544.716C1257.01 557.127 1248.76 567.847 1239.25 577.654C1230.98 586.192 1221.83 593.726 1212.23 600.712C1197.82 611.194 1182.47 620.138 1166.66 628.303C1156.13 633.738 1145.56 639.063 1135.11 644.666C1121.57 651.944 1108.91 660.509 1098.21 671.694C1094.99 675.078 1092.04 678.753 1089.12 682.409C1088.4 683.299 1088.25 684.639 1087.85 685.776C1087.65 685.913 1087.47 686.048 1087.28 686.185C1087.43 685.947 1087.57 685.753 1087.69 685.554Z" fill="#CEFD3B"/>
<path d="M1044.09 390.778C1041.38 390.761 1038.66 390.716 1035.95 390.733C1034.23 390.743 1032.45 390.627 1030.8 390.99C1029.74 391.222 1028.66 392.065 1027.95 392.934C1027.29 393.739 1028.82 395.463 1030.59 395.878C1037.38 397.462 1044.23 397.82 1051.17 397.169C1060.51 396.293 1069.78 395.006 1078.93 392.922C1080.53 392.556 1081.84 392.714 1083.07 393.697C1089.68 398.994 1094.65 405.391 1094.73 414.227C1094.77 418.346 1093.96 422.578 1092.9 426.588C1090.93 434.063 1087.02 440.671 1082.67 447.007C1075.46 457.512 1066.33 466.099 1056.14 473.646C1045.61 481.452 1034.4 488.155 1022.87 494.386C1008.77 502.014 994.673 509.66 980.645 517.435C976.334 519.825 972.283 522.671 968.106 525.299C950.487 536.39 938.857 552.229 931.501 571.458C930.708 573.529 930.018 575.645 929.142 577.678C928.538 579.077 926.919 579.794 925.463 579.561C924.013 579.328 922.706 578.126 922.685 576.543C922.626 572.352 922.33 568.1 922.874 563.972C924.068 554.931 925.221 545.831 927.285 536.964C932.994 512.416 943.983 490.658 962.449 473.033C974.62 461.414 988.667 453.028 1004.65 447.815C1007.46 446.899 1010.26 445.949 1013.03 444.891C1014.4 444.37 1015.79 443.744 1016.92 442.829C1017.52 442.34 1017.75 441.133 1017.71 440.27C1017.7 439.848 1016.66 439.099 1016.12 439.133C1013.45 439.293 1010.68 439.32 1008.13 440.044C1003.87 441.246 999.739 442.917 995.574 444.438C993.723 445.114 991.854 445.79 990.091 446.66C988.085 447.649 986.322 447.292 984.482 446.309C973.118 440.251 966.76 431.044 966.124 417.969C965.317 401.439 971.581 387.614 982.089 375.414C991.544 364.436 1003.08 356.033 1015.54 348.797C1027.76 341.71 1040.82 336.52 1053.84 331.208C1060.69 328.415 1067.53 325.597 1074.35 322.723C1083.02 319.069 1091.21 314.533 1098.85 309.022C1104.91 304.65 1110.13 299.449 1114.62 293.502C1120 286.403 1124.82 278.963 1129.04 271.107C1133.13 263.492 1137.45 256.014 1142.75 249.143C1152.84 236.033 1165.57 225.964 1179.66 217.552C1190.69 210.968 1202.02 204.987 1214.41 201.273C1215.59 200.922 1216.74 200.395 1217.93 200.2C1220.78 199.735 1223.25 202.584 1222.39 205.391C1221.96 206.781 1221.3 208.176 1220.44 209.342C1218.69 211.719 1216.83 214.042 1214.81 216.211C1199.73 232.457 1187.63 250.693 1178.67 270.955C1175.59 277.934 1173.15 285.203 1170.49 292.373C1169.29 295.61 1168.33 298.932 1167.21 302.197C1159.63 324.184 1146.89 342.677 1129.35 357.857C1121.5 364.639 1113.46 371.186 1104.71 376.8C1100.1 379.752 1095.22 381.982 1089.95 383.491C1074.94 387.769 1059.76 390.811 1044.09 390.778ZM578.003 539.605C577.175 539.443 576.695 539.358 576.218 539.252C574.784 538.931 573.85 536.896 574.729 535.735C575.45 534.781 576.309 533.809 577.324 533.237C578.59 532.523 580.047 531.956 581.481 531.758C587.337 530.958 591.215 527.257 594.696 522.983C601.106 515.126 606.621 506.632 611.583 497.821C617.266 487.729 622.573 477.421 627.999 467.183C635.403 453.215 643.615 439.77 653.145 427.128C669.415 405.544 689.21 388.033 712.919 375.02C719.183 371.582 725.48 368.174 731.936 365.118C738.464 362.029 744.383 358.127 749.807 353.403C750.919 352.438 752.061 351.489 753.284 350.675C754.583 349.809 756.573 350.054 757.231 351.326C757.745 352.315 757.937 353.649 757.768 354.754C757.636 355.623 756.843 356.485 756.154 357.164C752.661 360.621 749.223 364.053 745.081 366.878C735.834 373.184 728.133 381.22 721.857 390.482C718.122 395.989 714.707 401.708 711.632 407.611C705.947 418.547 700.553 429.635 695.172 440.727C686.962 457.655 677.233 473.622 665.514 488.355C655.763 500.611 644.355 511.07 631.393 519.839C624.62 524.422 617.403 528.2 609.659 530.781C601.49 533.505 593.196 535.864 584.924 538.264C582.567 538.944 580.096 539.209 578.003 539.605ZM-18.4302 889.273H1425.01V1031.71H-18.4302V889.273Z" fill="#CEFD3B"/>
</g>
<defs>
<filter id="filter0_d_1_503" x="0" y="0" width="1403" height="946" filterUnits="userSpaceOnUse" color-interpolation-filters="sRGB">
<feFlood flood-opacity="0" result="BackgroundImageFix"/>
<feColorMatrix in="SourceAlpha" type="matrix" values="0 0 0 0 0 0 0 0 0 0 0 0 0 0 0 0 0 0 127 0" result="hardAlpha"/>
<feOffset dy="4"/>
<feGaussianBlur stdDeviation="2"/>
<feComposite in2="hardAlpha" operator="out"/>
<feColorMatrix type="matrix" values="0 0 0 0 0 0 0 0 0 0 0 0 0 0 0 0 0 0 0.25 0"/>
<feBlend mode="normal" in2="BackgroundImageFix" result="effect1_dropShadow_1_503"/>
<feBlend mode="normal" in="SourceGraphic" in2="effect1_dropShadow_1_503" result="shape"/>
</filter>
<clipPath id="clip0_1_503">
<rect width="1395" height="938" fill="white" transform="translate(4)"/>
</clipPath>
</defs>
</svg>
