<svg width="106" height="124" viewBox="0 0 106 124" fill="none" xmlns="http://www.w3.org/2000/svg">
<path d="M59.1898 123.9C60.3134 123.9 61.437 123.901 62.5605 123.899C63.4375 123.897 64.3056 123.816 65.1537 123.584C65.3924 123.518 65.624 123.422 65.8557 123.329C66.2097 123.185 66.4712 122.945 66.7178 122.642C68.0313 121.031 69.3905 119.46 71.0063 118.136C71.9014 117.412 72.8629 116.775 73.8779 116.234C74.5351 115.877 75.2093 115.545 75.8546 115.165C76.5844 114.734 77.2934 114.262 78.0073 113.803C78.1942 113.682 78.3454 113.506 78.592 113.492C78.6586 113.488 78.7312 113.433 78.7829 113.384C79.2373 112.954 79.6877 112.521 80.1401 112.088C81.3064 110.346 81.4814 108.947 80.4951 107.089C80.3668 106.848 80.1918 106.63 80.0317 106.407C79.5475 105.732 79.1716 105.002 78.8624 104.233C78.7888 104.049 78.6735 103.881 78.576 103.707C78.061 102.791 77.542 101.877 77.0349 100.956C76.9016 100.716 76.7863 100.463 76.6888 100.206C75.6229 97.4004 76.1022 94.8481 77.9516 92.5254C78.1236 92.3107 78.3235 92.117 78.4736 91.8883C78.7113 91.5278 79.0493 91.344 79.4461 91.2402C80.0757 91.0802 80.7202 90.9858 81.3691 90.9586C81.6437 90.9463 81.9185 90.941 82.1934 90.9426C83.5655 90.9376 84.9397 90.9406 86.3128 90.9277C86.6857 90.9237 87.0586 90.8768 87.4305 90.8458C88.0768 90.7909 88.7231 90.736 89.3694 90.6761C89.618 90.6531 89.8864 90.67 90.1062 90.5762C90.4681 90.4204 90.6769 90.5992 90.8847 90.8248C91.0359 90.9906 91.1602 91.1813 91.3123 91.3471C91.8589 91.9363 92.5193 92.4076 93.2532 92.7321C94.2793 93.1974 95.3383 93.5739 96.4629 93.7087C97.2484 93.8026 98.008 93.6837 98.6862 93.2473C99.0093 93.0396 99.3374 92.8829 99.7262 92.8689C99.8247 92.8659 99.9221 92.8349 100.02 92.812C100.386 92.7221 100.649 92.5164 100.748 92.1359C100.773 92.0391 100.797 91.9402 100.833 91.8483C100.902 91.6686 101.037 91.5568 101.231 91.5588C101.554 91.5628 101.877 91.5798 102.2 91.5997C102.424 91.6137 102.647 91.6646 102.869 91.6576C103.288 91.6466 103.493 91.359 103.396 90.9456C103.372 90.8488 103.325 90.7579 103.301 90.6611C103.252 90.4713 103.297 90.3904 103.49 90.3205C103.654 90.2596 103.826 90.2187 103.985 90.1508C104.213 90.0539 104.25 89.7613 104.059 89.5926C103.966 89.5107 103.861 89.4438 103.759 89.3689C103.058 88.8467 102.349 88.3344 101.657 87.7991C101.222 87.4626 100.799 87.1111 100.304 86.8635C100.191 86.8065 100.183 86.7157 100.286 86.6398C100.976 86.1385 101.589 85.5484 102.192 84.9482C102.69 84.454 103.118 83.8936 103.465 83.2826C104.406 81.6524 105.022 79.8533 105.277 77.9862C105.516 76.2208 105.41 74.4863 104.884 72.7827C104.396 71.204 103.912 69.6232 103.405 68.0505C102.965 66.6834 102.295 65.4252 101.539 64.209C101.17 63.6138 100.818 63.0057 100.499 62.3836C99.0471 59.5616 97.2633 56.9693 95.1981 54.5698C91.8055 50.6274 87.8352 47.3711 83.4542 44.606C78.3553 41.3886 72.8975 38.9481 67.1871 37.0618C63.5624 35.8632 59.8657 34.8964 56.1193 34.167C55.3358 34.0152 54.5503 33.8724 53.7668 33.7226C53.6196 33.6957 53.4735 33.6627 53.3283 33.6258C52.5806 33.438 51.8308 33.2553 51.0831 33.0705C50.0351 32.8119 49.0845 32.2957 48.1578 31.7475C47.1257 31.1374 46.0936 30.5292 45.0048 30.0219C43.6009 29.3689 42.1422 29.0064 40.5851 29.0633C39.8861 29.0882 39.1871 29.0573 38.4881 29.0713C37.97 29.0823 37.5136 28.9595 37.0891 28.6429C36.3662 28.1057 35.5727 27.6773 34.7693 27.2709C34.1656 26.9692 33.5945 26.6058 33.065 26.1864C32.8045 25.9777 32.7081 25.743 32.7598 25.4045C32.9358 24.2342 32.8871 23.0539 32.8722 21.8756C32.8642 21.1836 32.6375 20.5465 32.2646 19.9663C32.0747 19.6718 31.8659 19.3892 31.672 19.0976C31.5398 18.8989 31.5477 18.808 31.7386 18.6542C31.9307 18.4948 32.1348 18.3506 32.3491 18.2229C32.9368 17.8853 33.5552 17.6227 34.2224 17.4879C34.4185 17.4507 34.6123 17.4027 34.8031 17.3441C35.4822 17.1264 36.0928 16.7979 36.5153 16.1977C36.8743 15.6865 37.2372 15.1762 37.5693 14.646C38.1684 13.6919 38.7532 12.7289 39.3233 11.7571C40.3778 9.95562 41.8058 8.40306 43.5104 7.20465C44.7995 6.28935 45.8756 5.10408 46.6644 3.73062C47.0671 3.03861 47.4688 2.34361 48.0017 1.73848C48.0649 1.66136 48.1028 1.56644 48.1101 1.46683C48.133 1.03945 47.784 0.492215 47.3783 0.341431C46.9109 0.16768 46.4337 0.0189096 45.9246 0.0209068C45.5497 0.0229039 45.1749 0.0259225 44.801 0.00694972C43.7251 -0.0479716 42.7199 0.226595 41.7653 0.689931C40.8217 1.14927 39.906 1.66153 39.1115 2.36752C38.7575 2.68307 38.3767 2.97068 38.0158 3.27924C37.2899 3.89835 36.6466 4.59534 36.0957 5.37822C35.5061 6.21802 34.9334 7.07278 34.299 7.87763C33.415 8.99803 32.4903 10.0855 31.5666 11.1719C30.6628 12.2344 29.5283 13.0103 28.343 13.7163C28.173 13.8182 27.9851 13.897 27.7971 13.9599C27.3815 14.0997 26.9689 14.1227 26.5632 13.904C26.2112 13.7153 25.8473 13.5495 25.4943 13.3638C24.4781 12.8266 23.4619 12.2933 22.395 11.863C21.4335 11.4745 20.4441 11.2438 19.4011 11.3147C19.2072 11.3277 19.0074 11.3656 18.8264 11.4345C17.4552 11.9628 16.0642 12.0617 14.6473 11.6502C13.8329 11.4146 13.0225 11.164 12.2072 10.9313C11.8721 10.8354 11.5241 10.7815 11.19 10.6836C10.5765 10.5049 9.95508 10.5089 9.33263 10.5858C7.64726 10.7965 5.98079 11.102 4.35508 11.6053C2.89244 12.0577 1.7251 12.9065 0.902802 14.2156C0.863029 14.2785 0.826226 14.3444 0.78347 14.4063C0.458328 14.8646 0.591576 15.312 0.83419 15.7434C0.867003 15.8033 1.02707 15.8502 1.09171 15.8213C1.36306 15.6975 1.62641 15.5568 1.8802 15.3999C2.24114 15.1762 2.58618 14.9286 2.94712 14.7049C3.33391 14.4662 3.76544 14.3334 4.20791 14.2455C4.50371 14.1807 4.81271 14.2202 5.08292 14.3574C5.16601 14.4095 5.23339 14.4833 5.2778 14.571C5.35138 14.6999 5.2599 14.9066 5.12268 14.9365C5.02806 14.9635 4.92934 14.973 4.83134 14.9645C4.28149 14.8747 3.79129 15.0533 3.32993 15.315C2.98291 15.5107 2.65279 15.7384 2.32367 15.965C1.8464 16.2946 1.36515 16.6041 0.75563 16.6071C0.579636 16.6071 0.482193 16.726 0.427505 16.8708C0.160034 17.5778 -0.0259056 18.3017 0.00292969 19.0686C0.0118786 19.3033 0.0954056 19.494 0.207764 19.6967C1.08575 21.2884 2.38134 22.4957 3.75848 23.6291C4.14427 23.9457 4.57282 24.2113 4.95564 24.5318C5.39413 24.9003 5.80479 25.3027 6.22738 25.6912C6.24329 26.0956 6.58931 26.2523 6.83092 26.478C7.08406 26.7201 7.35826 26.939 7.65025 27.1321C8.26474 27.5265 8.79073 28.0268 9.3386 28.5011C9.82085 28.9195 10.1519 29.4498 10.3896 30.0369C10.6342 30.6391 10.8619 31.2502 11.0966 31.8573C12.069 34.3697 13.5287 36.5636 15.387 38.5008C16.1016 39.2367 16.7959 39.9923 17.4692 40.7665C18.4018 41.853 19.1714 43.0562 19.8307 44.3274C20.2234 45.0853 20.5287 45.8702 20.6549 46.73C20.7245 47.2003 20.7663 47.6587 20.7643 48.133C20.7584 49.2614 20.8697 50.3828 20.991 51.5042C21.1561 53.037 21.5548 54.5048 22.1057 55.9358C22.6598 57.3609 23.3365 58.7348 24.1281 60.0419C25.1281 61.7219 26.2776 63.3075 27.5625 64.7791C27.9582 65.2305 28.3291 65.7048 28.7258 66.1552C29.1395 66.6245 29.568 67.0798 29.9976 67.5342C30.1348 67.679 30.277 67.8368 30.448 67.9276C30.9462 68.1923 31.3061 68.6047 31.6889 69.0001C32.6057 69.9457 33.6616 70.6877 34.8896 71.177C35.6075 71.4635 36.3205 71.7661 37.0304 72.0717C37.2352 72.1605 37.4381 72.2674 37.618 72.3972C37.7519 72.4896 37.8658 72.6083 37.9528 72.7461C38.0398 72.8839 38.0981 73.038 38.1241 73.1991C38.1749 73.4937 38.2703 73.7792 38.3508 74.0668C38.5457 74.7658 38.8053 75.4539 38.9236 76.1658C39.0687 77.0506 39.1384 77.9452 39.0737 78.8569C38.9544 80.5245 38.5179 82.1103 38.0277 83.691C37.7533 84.5747 37.4639 85.4575 37.3128 86.3742C37.2312 86.8685 37.1467 87.3628 37.092 87.8601C37.0185 88.5181 37.1239 89.1662 37.3158 89.7903C37.5962 90.699 37.9064 91.5977 38.2236 92.4944C38.4493 93.1315 38.7317 93.7486 38.9494 94.3877C39.4913 95.9824 40.2609 97.4753 40.948 99.0041C41.3179 99.8289 41.8151 100.585 42.354 101.309C42.5366 101.546 42.7447 101.762 42.9744 101.954C43.6904 102.566 44.6847 102.512 45.3479 102.082C45.7906 101.795 46.1555 101.403 46.4098 100.939C46.8053 100.24 47.0483 99.4643 47.1227 98.6636C47.2699 97.0799 47.08 95.562 46.2994 94.149C46.1175 93.8215 45.9564 93.481 45.7824 93.1485C45.5378 92.6831 45.2912 92.2188 45.0426 91.7545C44.5813 90.8897 44.2869 89.9561 43.9548 89.0384C43.7102 88.3624 43.758 87.7123 44.1149 87.0832C44.3118 86.7347 44.4878 86.3742 44.6717 86.0177C45.5549 84.2991 46.1352 82.44 46.3869 80.5226C46.5538 79.2305 46.6934 77.9351 46.8055 76.6372C46.8831 75.7654 47.1267 74.9795 47.6895 74.2895C48.4402 73.3678 48.9602 72.3123 49.3331 71.187C49.3997 70.9862 49.4932 70.8954 49.6791 70.8624C50.1206 70.7845 50.5601 70.6777 51.0046 70.6337C51.799 70.5548 52.5955 70.4989 53.3929 70.459C54.5145 70.4031 55.6361 70.3691 56.7587 70.3272C56.8836 70.3217 57.0087 70.3217 57.1335 70.3272C57.8465 70.3621 57.9191 70.424 58.0931 71.112C58.111 71.1849 58.1428 71.2549 58.1547 71.3288C58.4043 72.8915 59.154 74.2047 60.1821 75.37C61.0929 76.4015 62.0256 77.414 62.9493 78.4346C63.5423 79.0795 64.0786 79.7747 64.5522 80.5126C64.8326 80.9559 65.105 81.4113 65.3198 81.8886C65.8114 82.9634 66.0045 84.1517 65.8786 85.3277C65.7463 86.6049 65.4142 87.8371 65.1696 89.0903C64.9966 89.975 64.8067 90.8547 64.7311 91.7575C64.6617 92.6078 64.7691 93.4634 65.0463 94.2699C65.2484 94.8903 65.5266 95.483 65.8746 96.0343C66.7009 97.3185 67.5401 98.5937 68.3743 99.8739C68.6607 100.314 68.952 100.753 69.2255 101.201C69.8598 102.238 70.2526 103.37 70.4952 104.557C70.535 104.75 70.5956 104.935 70.4992 105.141C70.4395 105.269 70.4435 105.434 70.4415 105.583C70.4226 107.14 69.9175 108.532 68.9948 109.771C68.6517 110.231 68.2679 110.663 67.8821 111.089C67.4188 111.599 66.848 111.954 66.1848 112.146C65.6578 112.299 65.1338 112.468 64.5979 112.581C63.5161 112.808 62.5953 113.331 61.7711 114.05C61.0353 114.691 60.3094 115.344 59.683 116.097C59.2604 116.606 58.7742 117.025 58.1438 117.257C58.1 117.273 58.0642 117.311 58.0245 117.339C58.0662 117.354 58.106 117.379 58.1487 117.384C58.2979 117.401 58.449 117.397 58.5952 117.428C58.7156 117.456 58.8313 117.501 58.9382 117.563C59.0576 117.631 59.1172 117.764 59.0615 117.884C59.0148 117.985 58.9034 118.12 58.8139 118.124C58.5425 118.14 58.2671 118.112 57.9956 118.079C57.1761 117.981 56.3463 118.018 55.5387 118.189C54.996 118.292 54.4863 118.525 54.0531 118.87C53.6843 119.168 53.3134 119.467 52.9266 119.74C52.7048 119.897 52.4632 120.053 52.2067 120.125C51.449 120.339 50.7779 120.71 50.1345 121.149C50.052 121.206 49.9754 121.28 49.884 121.312C49.4753 121.457 49.4127 121.808 49.4097 122.161C49.4047 122.569 49.6314 122.875 49.9804 123.07C50.1306 123.154 50.3066 123.195 50.4746 123.238C50.5962 123.267 50.7206 123.282 50.8455 123.283C51.2442 123.294 51.6598 123.372 52.0347 123.281C52.3986 123.193 52.5487 122.76 52.8192 122.504C53.2 122.143 53.5669 121.765 53.9726 121.434C54.5404 120.969 55.1807 120.638 55.9254 120.55C56.3093 120.505 56.6324 120.33 56.9367 120.096C57.2931 119.821 57.6586 119.558 58.0324 119.308C58.7187 118.841 59.5209 118.575 60.3492 118.54C60.7419 118.524 61.1426 118.604 61.5334 118.673C61.6686 118.697 61.8009 118.802 61.9103 118.898C61.9577 118.939 61.9905 118.995 62.0039 119.057C62.0173 119.119 62.0107 119.183 61.9848 119.241C61.9291 119.381 61.7691 119.477 61.6239 119.45C61.5513 119.437 61.4807 119.409 61.4101 119.386C60.4367 119.058 59.5338 119.291 58.6767 119.764C58.285 119.98 57.9121 120.243 57.5631 120.522C57.0838 120.906 56.5777 121.201 55.9583 121.272C55.4482 121.331 55.0027 121.559 54.6 121.862C54.2808 122.103 53.9696 122.359 53.6892 122.641C53.5063 122.826 53.2378 122.959 53.2 123.264C53.4784 123.418 53.7409 123.624 54.0382 123.713C54.3664 123.811 54.7333 123.864 55.0733 123.83C56.1492 123.722 57.2181 123.867 58.2909 123.858C58.5902 123.857 58.8895 123.858 59.1898 123.858V123.9ZM17.5556 20.0372C16.618 20.0003 15.7838 19.55 15.1703 18.7221C14.7099 18.101 14.3311 17.421 13.7762 16.8688C13.7367 16.8274 13.7081 16.7767 13.6929 16.7215C13.6778 16.6662 13.6766 16.608 13.6894 16.5521C13.7022 16.4962 13.7287 16.4445 13.7664 16.4014C13.8041 16.3584 13.8519 16.3254 13.9055 16.3056C14.3649 16.1438 14.7248 15.8382 15.1076 15.5616C15.2685 15.4435 15.4403 15.3412 15.6207 15.2561C16.0811 15.0424 16.5524 14.9515 17.0704 15.0504C17.7207 15.1732 18.3024 15.4338 18.8622 15.7684C19.3153 16.0381 19.6847 16.4291 19.9291 16.8977C20.1976 17.404 20.3954 17.9472 20.7961 18.3796C20.9343 18.5294 20.8707 18.795 20.7047 18.9128C20.6241 18.9698 20.5346 19.0377 20.4432 19.0506C20.0325 19.1086 19.7143 19.3542 19.3663 19.544C18.8344 19.8316 18.2745 20.0372 17.5556 20.0372ZM42.1472 5.13461C42.3242 5.14759 42.4067 5.13357 42.4703 5.16253C42.5583 5.2005 42.6361 5.25907 42.697 5.3333C42.7616 5.41818 42.7 5.58992 42.5847 5.65383C42.4325 5.73771 42.2774 5.8206 42.1134 5.87452C40.2898 6.47067 38.7685 7.5172 37.4858 8.93916C36.4616 10.0745 35.5697 11.3128 34.6649 12.541C33.9231 13.5486 33.1864 14.5591 32.4128 15.5407C31.492 16.709 30.3068 17.5189 28.8979 17.9892C28.7139 18.0501 28.5121 18.075 28.3172 18.081C28.1849 18.084 28.0934 17.9752 28.0676 17.8414C28.0417 17.7126 28.0646 17.5757 28.182 17.5098C28.3331 17.4259 28.5001 17.371 28.6632 17.3121C29.9379 16.8548 31.0177 16.1188 31.8709 15.0594C32.1238 14.7495 32.3701 14.4342 32.6096 14.1137C33.5592 12.8245 34.4939 11.5244 35.4554 10.2453C36.2678 9.16482 37.1467 8.14029 38.1758 7.25456C39.1334 6.43074 40.2172 5.82159 41.3805 5.35226C41.655 5.23942 41.9523 5.18854 42.1472 5.13461Z" fill="black"/>
</svg>
