<svg width="119" height="95" viewBox="0 0 119 95" fill="none" xmlns="http://www.w3.org/2000/svg">
<path d="M60.7802 95C59.2203 94.962 57.6521 94.937 56.084 94.882C54.9584 94.8385 53.8338 94.7755 52.7106 94.693C51.6193 94.618 50.5295 94.524 49.4417 94.411C47.3819 94.195 45.3272 93.93 43.2829 93.599C39.3319 92.958 35.4441 92.081 31.6494 90.833C29.6372 90.171 27.6747 89.397 25.7846 88.453C24.4183 87.77 23.1037 87.005 21.8895 86.09C20.8285 85.29 19.8545 84.405 19.0792 83.334C18.5651 82.6396 18.1756 81.8664 17.9272 81.047C17.5618 79.802 17.6435 78.582 18.1114 77.379C18.4903 76.404 19.0875 75.562 19.8059 74.7951C20.48 74.0848 21.2302 73.4456 22.0437 72.8881C23.5612 71.8301 25.2049 70.9921 26.9191 70.2751C27.9376 69.8491 28.9737 69.4651 30.0243 69.1201C30.3494 69.0131 30.6723 68.9001 30.9911 68.7801C32.1194 68.3501 33.2942 68.0821 34.4742 67.8301C35.4772 67.6151 36.4782 67.3881 37.4874 67.1971C38.6881 66.9701 39.893 66.7621 41.1009 66.5731C42.164 66.4061 43.2332 66.2751 44.2994 66.1311C44.6234 66.0881 44.9484 66.0571 45.2724 66.0211C45.3376 66.0141 45.4028 66.0091 45.468 66.0111C45.8313 66.0211 46.0445 66.2511 46.0042 66.5961C45.9969 66.6571 45.9721 66.7171 45.9504 66.7761C45.9245 66.8461 45.9845 66.8701 46.0218 66.8691C46.2495 66.8611 46.4772 66.8481 46.7049 66.8291C46.753 66.8238 46.7974 66.8013 46.8291 66.7661C46.8892 66.6861 46.796 66.6581 46.7557 66.6231C46.2909 66.2251 45.822 65.8321 45.3572 65.4351C45.2796 65.3681 45.2134 65.3651 45.1606 65.4491C45.0467 65.6261 44.879 65.6471 44.6896 65.6091C44.6109 65.5921 44.5333 65.5651 44.4536 65.5461C43.8398 65.3981 43.2301 65.3861 42.6173 65.5721C42.2478 65.6851 41.8835 65.6451 41.516 65.5151C41.0419 65.3481 40.5544 65.2151 40.072 65.0701C39.9395 65.0301 39.8215 65.0661 39.6953 65.1181C39.4719 65.2128 39.2423 65.293 39.008 65.3581C38.5349 65.4851 38.0681 65.3801 37.6044 65.2881C37.3332 65.2331 37.064 65.1681 36.7939 65.1081C36.6738 65.0821 36.5848 65.1201 36.4823 65.1931C36.1407 65.4361 35.7929 65.6701 35.4338 65.8871C34.8934 66.2131 34.2993 66.2701 33.6865 66.1481C32.9032 65.9876 32.1403 65.7451 31.4114 65.4251C30.3804 64.9801 29.3101 64.6451 28.2398 64.3091C27.8827 64.1971 27.5277 64.0791 27.1799 63.9421C25.9243 63.4501 24.6336 63.0521 23.3573 62.6161C22.1721 62.2111 20.9952 61.7871 19.81 61.3821C18.7646 61.0251 17.7088 60.6941 16.6654 60.3291C14.825 59.6841 12.9566 59.1141 11.1297 58.4301C10.9625 58.3674 10.7958 58.3034 10.6297 58.2381C10.5055 58.1891 10.3844 58.1281 10.3316 58.0061C10.2623 57.8491 10.1246 57.7661 9.99418 57.6731C7.954 56.2091 6.24713 54.4371 4.82698 52.4061C3.66121 50.7266 2.70668 48.9188 1.98356 47.0211C1.27329 45.1713 0.754584 43.2579 0.435055 41.3092C0.27151 40.3292 0.165932 39.3392 0.0872641 38.3482C-0.0245264 36.9432 -0.0141791 35.5402 0.0365406 34.1362C0.0696638 33.2062 0.17111 32.2802 0.282901 31.3562C0.510622 29.4872 0.887395 27.6482 1.39459 25.8342C2.33524 22.4632 3.72344 19.224 5.52463 16.1972C6.77339 14.085 8.22921 12.0936 9.87204 10.2503C12.6347 7.16226 15.828 4.58627 19.5781 2.68227C21.8763 1.50549 24.3442 0.668512 26.8994 0.199281C27.3 0.126281 27.7047 0.0772816 28.1084 0.0182817C28.1726 0.00828178 28.2409 -0.00771811 28.303 0.00428185C28.7708 0.0892816 29.248 0.0342819 29.7159 0.108282C30.1672 0.178281 30.6175 0.255282 31.0688 0.326281C33.0499 0.63528 35.0156 1.02928 36.9823 1.41628C38.4055 1.69628 39.8226 2.00328 41.2438 2.29227C42.8875 2.62727 44.5343 2.95227 46.1781 3.28827C47.5672 3.57227 48.9552 3.85827 50.3412 4.15527C51.9177 4.49327 53.49 4.85427 55.0675 5.18527C55.7921 5.33827 56.4556 5.63526 57.1242 5.92426C57.4399 6.06026 57.7142 6.25926 57.9658 6.48826C58.505 6.97926 58.976 7.52026 59.2679 8.18826C59.33 8.33126 59.4284 8.39626 59.596 8.42325C60.095 8.50325 60.597 8.58126 61.0824 8.71326C62.5688 9.11625 63.8296 9.86525 64.7777 11.0652C64.8864 11.2032 65.0065 11.3422 65.0738 11.4992C65.1907 11.7692 65.4009 11.9162 65.6596 12.0372C66.232 12.3072 66.7972 12.5892 67.3665 12.8662C67.4824 12.9232 67.6015 12.9772 67.7154 13.0382C67.8002 13.0842 67.9048 13.1222 67.9576 13.1932C68.1325 13.4302 68.3985 13.5092 68.6531 13.6102C69.3653 13.8912 70.0578 14.2132 70.7119 14.6032C71.3641 14.9922 72.0493 15.3332 72.659 15.7862C72.7883 15.8822 72.9229 15.9742 73.0409 16.0822C74.4766 17.4002 75.8491 18.7692 76.9577 20.3682C78.0314 21.9165 78.9279 23.5729 79.6314 25.3082C80.4573 27.3524 81.0559 29.4757 81.4169 31.6422C81.6064 32.7642 81.7388 33.8912 81.8237 35.0252C81.9396 36.5712 81.9386 38.1172 81.8641 39.6622C81.7923 40.9853 81.6478 42.3038 81.4314 43.6122C80.909 46.8739 79.9731 50.0612 78.6449 53.1021C78.4679 53.5091 78.2733 53.9101 78.0901 54.3141C78.0611 54.3781 78.0787 54.4381 78.1502 54.4701C78.2092 54.4961 78.2692 54.5221 78.3303 54.5421C78.7691 54.6841 79.1542 54.9201 79.5299 55.1751C79.678 55.2761 79.8115 55.3881 79.8964 55.5481C80.0454 55.8291 80.299 55.9981 80.5868 56.1271C81.0339 56.3291 81.5018 56.4731 81.9924 56.5181C82.8702 56.5981 83.7511 56.6561 84.634 56.5741C84.6992 56.5681 84.7644 56.5651 84.8296 56.5621C85.9879 56.5001 87.1452 56.4201 88.3034 56.3821C89.0373 56.3581 89.7733 56.3951 90.5072 56.4071C90.6386 56.4091 90.769 56.4191 90.8995 56.4231C91.7814 56.4451 92.6602 56.5151 93.5379 56.6031C94.3008 56.6801 95.0657 56.7411 95.8276 56.8331C96.5076 56.9151 97.1856 57.0161 97.8605 57.1331C99.0332 57.3361 100.204 57.5501 101.373 57.7721C104.565 58.3747 107.668 59.359 110.609 60.7021C111.96 61.3181 113.203 62.1041 114.413 62.9401C114.855 63.2461 115.222 63.6301 115.554 64.0411C116.288 64.9511 116.981 65.8861 117.572 66.8911C118.266 68.0731 118.734 69.3311 118.917 70.6721C119.068 71.7741 119.021 72.8801 118.711 73.9601C118.481 74.7661 118.258 75.576 117.968 76.362C117.341 78.063 116.398 79.584 115.072 80.871C113.742 82.163 112.272 83.288 110.713 84.309C108.474 85.774 106.099 86.997 103.638 88.069C99.6087 89.825 95.427 91.149 91.1375 92.169C87.7944 92.9678 84.4045 93.5715 80.9863 93.977C79.7067 94.1301 78.4239 94.2578 77.1389 94.36C76.1131 94.44 75.0863 94.497 74.0595 94.555C73.0968 94.609 72.1331 94.635 71.1695 94.631C70.1078 94.6288 69.0465 94.6641 67.9876 94.737C66.4232 94.8425 64.8562 94.9075 63.2882 94.932C62.4539 94.944 61.6217 94.976 60.7802 95ZM78.6615 24.8882L78.675 24.9802C78.6781 24.9952 78.6843 25.0092 78.6884 25.0242C78.6977 25.0022 78.7215 24.9742 78.7153 24.9602C78.7019 24.9362 78.6718 24.9202 78.6491 24.9002C78.6387 24.8262 78.6594 24.7382 78.5507 24.7112C78.5311 24.6212 78.5269 24.5222 78.4886 24.4402C78.3209 24.0802 78.1491 23.7222 77.9659 23.3702C77.026 21.5702 75.8843 19.9042 74.4673 18.4202C74.2913 18.2352 74.1267 18.0392 73.8825 17.9232C73.7996 17.8832 73.7386 17.7982 73.6723 17.7282C73.3753 17.4142 73.0834 17.0952 72.7811 16.7842C72.5099 16.5097 72.2002 16.2734 71.8609 16.0822C71.6653 15.9692 71.4686 15.8562 71.2792 15.7322C69.0568 14.2802 66.615 13.4022 63.9403 13.1762C62.5383 13.0557 61.1257 13.121 59.742 13.3702C57.5528 13.7662 55.5095 14.5332 53.5873 15.6172C51.22 16.9512 49.1809 18.6632 47.3684 20.6352C45.6688 22.4852 44.2393 24.5192 43.0262 26.6952C41.1454 30.0682 39.8588 33.6482 39.069 37.3982C39.052 37.4751 39.0427 37.5535 39.0411 37.6322C39.0411 37.7002 39.0794 37.7542 39.1539 37.7642C39.4448 37.8042 39.7367 37.8382 40.0275 37.8782C40.2045 37.9022 40.2439 37.9462 40.2283 38.1322C40.1797 38.7142 40.13 39.2962 40.071 39.8772C40.042 40.1592 39.9934 40.4402 39.9509 40.7202C39.8376 41.4059 39.7609 42.0968 39.7211 42.7902C39.6778 43.8151 39.6775 44.8412 39.7201 45.8661C39.7305 46.1661 39.7367 46.4661 39.7594 46.7651C39.806 47.3471 39.8702 47.9271 39.9126 48.5101C39.9706 49.3131 40.0493 50.1141 40.218 50.9031C40.2739 51.1641 40.3619 51.4191 40.4426 51.6751C40.485 51.8111 40.5492 51.9401 40.5927 52.0751C40.9241 53.0989 41.2943 54.1105 41.7023 55.1081C42.0998 56.0931 42.5035 57.0761 43.0127 58.0141C43.6935 59.256 44.4678 60.4478 45.3293 61.5801C47.2401 64.1151 49.6715 66.0161 52.6806 67.2141C53.0128 67.3461 53.3534 67.4561 53.6918 67.5711C53.784 67.6011 53.8813 67.6211 53.9775 67.6311C54.0769 67.6431 54.227 67.4981 54.2301 67.3811C54.2322 67.2871 54.1483 67.2581 54.0666 67.2341C53.9736 67.2051 53.8814 67.1737 53.7902 67.1401C52.5149 66.6871 51.2946 66.1331 50.1663 65.3891C48.1944 64.0891 46.5818 62.4541 45.2506 60.5531C43.7735 58.4441 42.7188 56.1431 41.9818 53.7031C41.5149 52.1424 41.1784 50.5479 40.9757 48.9351C40.703 46.8359 40.6361 44.7165 40.7759 42.6051C40.9272 40.1791 41.3277 37.7737 41.9714 35.4242C42.8978 32.0282 44.2838 28.8222 46.2081 25.8412C47.8549 23.2912 49.8278 21.0112 52.2437 19.1042C53.8347 17.8492 55.5623 16.8112 57.4596 16.0422C59.3454 15.2755 61.3612 14.8504 63.4062 14.7882C64.2885 14.7685 65.1707 14.8312 66.0405 14.9752C67.765 15.2432 69.3922 15.7972 70.9117 16.6292C71.4086 16.9022 71.9002 17.1842 72.3847 17.4772C72.7987 17.7292 73.2024 17.9992 73.5502 18.3372C73.9073 18.6852 74.2706 19.0272 74.6267 19.3742C75.1883 19.9258 75.715 20.5096 76.2042 21.1222C76.9993 22.125 77.7028 23.1927 78.3065 24.3132C78.38 24.4482 78.4172 24.6092 78.5632 24.7012C78.5704 24.7762 78.5621 24.8592 78.6615 24.8882ZM0.604813 35.6692C0.640006 36.4522 0.674163 37.0822 0.69383 37.7132C0.719707 38.5822 0.821148 39.4452 0.935009 40.3052C1.06647 41.3062 1.25589 42.3002 1.49603 43.2831C2.12434 45.8461 3.0611 48.2941 4.42432 50.5831C6.02769 53.2731 8.08235 55.5731 10.7053 57.3831C10.7984 57.4481 10.8988 57.5121 10.9641 57.5981C11.0572 57.7221 11.1835 57.7831 11.3212 57.8331C11.8242 58.0171 12.3263 58.2061 12.8345 58.3791C14.1118 58.8131 15.3922 59.2411 16.6716 59.6691C17.8123 60.0521 18.9561 60.4271 20.0947 60.8161C21.3554 61.2481 22.612 61.6931 23.8717 62.1301C24.9006 62.4871 25.9316 62.8381 26.9605 63.1941C27.5142 63.3861 28.0608 63.5941 28.6187 63.7711C29.6569 64.1021 30.694 64.4341 31.695 64.8671C32.3057 65.1321 32.9381 65.3471 33.5913 65.4971C34.202 65.6361 34.7879 65.6081 35.322 65.2331C35.558 65.0661 35.8199 64.9321 36.0683 64.7801C36.1356 64.7391 36.208 64.6961 36.2587 64.6381C36.3049 64.5824 36.3652 64.5391 36.4337 64.5125C36.5023 64.4859 36.5768 64.4768 36.65 64.4861C36.828 64.5001 37.0081 64.5121 37.1831 64.5461C37.4377 64.5971 37.6882 64.6761 37.9428 64.7261C38.4687 64.8311 38.9831 64.8261 39.4582 64.5381C39.4986 64.5131 39.5462 64.4971 39.5886 64.4751C39.6685 64.4343 39.7561 64.4096 39.8462 64.4025C39.9362 64.3955 40.0268 64.4062 40.1124 64.4341C40.7045 64.6101 41.2862 64.8241 41.9073 64.8901C42.1515 65.0521 42.402 64.9871 42.6598 64.9221C43.0397 64.8251 43.4268 64.7521 43.8222 64.8071C44.0799 64.8431 44.3356 64.8981 44.5923 64.9431C44.6399 64.9511 44.6886 64.9531 44.7372 64.9531C44.7517 64.9531 44.7703 64.9431 44.7786 64.9311C44.7848 64.9231 44.7807 64.9011 44.7734 64.8911C44.7124 64.8191 44.6482 64.7481 44.5861 64.6761C44.1658 64.1921 43.728 63.7221 43.3295 63.2231C41.665 61.1431 40.4405 58.8331 39.5307 56.3631C38.6823 54.0407 38.1161 51.6308 37.8435 49.1821C37.664 47.645 37.58 46.0989 37.5919 44.5521C37.595 44.1901 37.6313 43.8271 37.6385 43.4651C37.6675 42.0422 37.8321 40.6332 38.0443 39.2262C38.365 37.1025 38.8641 35.0076 39.5369 32.9622C40.7159 29.3722 42.3751 26.0102 44.6182 22.9222C46.2422 20.6872 48.1251 18.6832 50.3319 16.9712C52.3234 15.4272 54.5013 14.2022 56.9182 13.3882C58.2804 12.9282 59.6799 12.6152 61.1187 12.5082C62.4726 12.4082 63.8286 12.4142 65.1721 12.6562C65.2197 12.6642 65.2694 12.6612 65.3181 12.6602C65.3336 12.6602 65.3491 12.6502 65.3646 12.6452C65.3574 12.6322 65.3543 12.6152 65.3439 12.6082C65.2497 12.5462 65.1566 12.4832 65.0593 12.4252C64.8457 12.3057 64.6731 12.1284 64.5624 11.9152C64.3088 11.4052 63.9238 10.9992 63.488 10.6382C62.7111 9.97995 61.7811 9.5127 60.7771 9.27625C60.5069 9.21425 60.2368 9.14225 59.9635 9.11025C59.6457 9.07225 59.3321 8.95425 58.9988 9.06925C58.8363 9.12425 58.6707 8.98125 58.652 8.81726C58.6438 8.77082 58.6449 8.7233 58.6551 8.67726C58.7141 8.49226 58.6334 8.34026 58.5506 8.18326C58.2887 7.68126 57.8974 7.28026 57.4772 6.90326C57.2621 6.70836 57.0143 6.55011 56.7443 6.43526C56.1058 6.15518 55.4423 5.93128 54.7621 5.76627C53.667 5.51327 52.5688 5.27827 51.4705 5.03927C50.245 4.77327 49.0204 4.49927 47.7918 4.24827C46.323 3.94627 44.85 3.66827 43.3812 3.37227C40.4105 2.77127 37.4439 2.15627 34.4711 1.56428C33.289 1.32828 32.0976 1.13628 30.9104 0.928279C30.3318 0.827279 29.749 0.747279 29.1745 0.63328C28.8826 0.57528 28.6052 0.49528 28.3185 0.63628C28.2636 0.66328 28.1891 0.65228 28.1249 0.66028C26.6344 0.863279 25.1728 1.18828 23.7444 1.65028C21.4981 2.38467 19.36 3.39781 17.3837 4.66427C14.1987 6.68626 11.4837 9.19625 9.14436 12.0952C6.91621 14.8662 5.08935 17.9176 3.71424 21.1652C2.67773 23.5871 1.89407 26.1029 1.37492 28.6752C1.10166 30.0382 0.87911 31.4092 0.783881 32.7962C0.712459 33.8032 0.657603 34.8112 0.604813 35.6692ZM66.8541 33.8692L66.8076 32.6952C66.7962 32.4112 66.7951 32.1252 66.7682 31.8432C66.6658 30.7912 66.5291 29.7432 66.2973 28.7092C65.9205 27.0192 65.3615 25.3932 64.5241 23.8632C63.7768 22.4982 62.8411 21.2712 61.6372 20.2452C60.5173 19.2912 59.2472 18.6032 57.797 18.2362C57.2775 18.0989 56.7447 18.0131 56.2071 17.9802C55.9908 17.9692 55.821 17.8982 55.7941 17.6602C55.7848 17.5762 55.7434 17.5512 55.6678 17.5902C55.553 17.6482 55.4391 17.7102 55.3263 17.7742C53.106 19.0342 51.2045 20.6592 49.5225 22.5302C47.8539 24.3862 46.472 26.4302 45.321 28.6202C44.309 30.5486 43.4853 32.564 42.8606 34.6402C42.5289 35.7459 42.2481 36.8654 42.0191 37.9952C41.9797 38.1882 41.9932 38.2092 42.1847 38.2622C42.6401 38.3852 43.0987 38.4982 43.551 38.6332C44.4125 38.8825 45.2293 39.2579 45.9731 39.7462C46.8882 40.3562 47.5682 41.1432 47.9346 42.1631C48.1582 42.7881 48.3487 43.4242 48.5557 44.0551C48.624 44.2651 48.6799 44.4821 48.7689 44.6851C49.1157 45.4801 49.685 46.0491 50.5596 46.3151C51.0751 46.4721 51.5958 46.6011 52.1278 46.6791C53.2571 46.8451 54.3874 47.0031 55.5209 47.1411C56.7195 47.2871 57.9181 47.4281 59.1064 47.6361C59.6654 47.7331 60.2368 47.7991 60.7553 48.0591C60.8292 48.0891 60.9108 48.0968 60.9893 48.0811C61.5679 47.9861 62.1455 47.8851 62.7231 47.7841C62.899 47.7531 63.106 47.7611 63.2365 47.6691C63.369 47.5761 63.43 47.3831 63.5118 47.2291C65.1423 44.1289 66.1942 40.7753 66.6192 37.3222C66.761 36.1922 66.8034 35.0592 66.8541 33.8692ZM80.8518 37.9142C80.8593 36.7931 80.804 35.6725 80.6861 34.5572C80.5637 33.4117 80.3778 32.2734 80.1293 31.1472C79.5734 28.6652 78.7091 26.2922 77.4339 24.0672C76.64 22.6812 75.7063 21.3892 74.5822 20.2312C74.4714 20.1162 74.3617 19.9902 74.2251 19.9112C74.0754 19.8169 73.942 19.7005 73.8297 19.5662C73.2749 18.9662 72.7356 18.3462 71.9592 17.9922C71.9013 17.9652 71.8516 17.9212 71.7978 17.8852C69.9829 16.6608 67.8982 15.8611 65.7083 15.5492C65.3377 15.4952 64.961 15.4762 64.5873 15.4432C64.5604 15.4402 64.5314 15.4572 64.5024 15.4652C64.5241 15.4872 64.5417 15.5152 64.5666 15.5322C64.6214 15.5662 64.6784 15.5972 64.7363 15.6262C65.5064 16.0182 66.2072 16.5052 66.8717 17.0462C67.9908 17.9691 69.0243 18.9846 69.9605 20.0812C70.8231 21.0735 71.562 22.1603 72.1621 23.3192C72.8701 24.6952 73.3732 26.1432 73.7572 27.6322C74.0294 28.6902 74.2561 29.7572 74.3162 30.8472C74.3817 32.093 74.3561 33.3418 74.2396 34.5842C74.2351 34.6472 74.2254 34.7097 74.2106 34.7712C74.1578 34.9772 74.0056 35.1092 73.8473 35.0912C73.662 35.0712 73.5502 34.8982 73.574 34.6572C73.5947 34.4372 73.6382 34.2192 73.6444 33.9992C73.6661 33.2892 73.6816 32.5792 73.6868 31.8692C73.7013 31.0952 73.6445 30.3215 73.5171 29.5572C73.3155 28.4225 73.0323 27.3028 72.6693 26.2062C72.1404 24.6032 71.4293 23.0842 70.4252 21.7032C69.2445 20.0894 67.8473 18.634 66.2703 17.3752C65.52 16.7635 64.6832 16.2584 63.7851 15.8752C63.53 15.7701 63.2812 15.6512 63.0398 15.5192C62.9269 15.456 62.7955 15.4307 62.6661 15.4472C62.3577 15.4772 62.0471 15.4992 61.7408 15.5442C60.4945 15.7272 59.2741 16.0102 58.1034 16.4682C57.56 16.6812 57.0269 16.9222 56.4918 17.1552C56.4245 17.1852 56.3158 17.2562 56.3231 17.2922C56.3448 17.4112 56.4731 17.3782 56.5632 17.3952C56.5953 17.4012 56.6284 17.3982 56.6605 17.4032C56.9824 17.4522 57.3085 17.4872 57.6262 17.5552C58.9854 17.8501 60.2632 18.4234 61.3733 19.2362C62.6889 20.1842 63.7313 21.3682 64.5852 22.7122C65.4288 24.0372 66.0447 25.4602 66.5022 26.9492C67.0953 28.8822 67.382 30.8622 67.4669 32.8702C67.5271 34.3853 67.4596 35.9026 67.2651 37.4072C67.0974 38.738 66.8384 40.0565 66.4898 41.3542C65.787 43.9641 64.7705 46.4511 63.3607 48.7821C63.0232 49.3411 62.6651 49.8881 62.3184 50.4421C62.248 50.5541 62.2645 50.6141 62.3732 50.6741C62.4871 50.7361 62.603 50.7951 62.7179 50.8551C62.8721 50.9351 62.9011 50.9321 62.9932 50.7921C63.5429 49.9671 64.0107 49.1011 64.4041 48.1971C64.6266 47.6871 64.5552 47.7051 65.1007 47.8051C65.197 47.8231 65.2963 47.8231 65.3915 47.8451C67.144 48.2381 68.7101 48.9761 70.0277 50.1751C70.0629 50.2081 70.0971 50.2501 70.1406 50.2641C70.1758 50.2751 70.2493 50.2661 70.2627 50.2421C70.3248 50.1321 70.3797 50.0171 70.4242 49.9001C70.8393 48.8201 71.2699 47.7461 71.6601 46.6601C72.1642 45.2581 72.5907 43.8351 72.9146 42.3832C73.0999 41.5502 73.2283 40.7082 73.3587 39.8662C73.3835 39.7112 73.4198 39.5562 73.4622 39.4062C73.486 39.3202 73.5657 39.2902 73.6527 39.2862C73.7022 39.2849 73.7505 39.3012 73.7884 39.332C73.8264 39.3627 73.8513 39.4058 73.8587 39.4532C73.869 39.5152 73.8742 39.5782 73.8762 39.6412C73.9004 40.3203 73.848 41 73.7199 41.6682C73.4612 42.985 73.1235 44.2862 72.7087 45.5651C72.0738 47.5386 71.3334 49.4788 70.4904 51.3781C70.1447 52.1611 69.7907 52.9421 69.4398 53.7231C69.356 53.9091 69.268 54.0951 69.181 54.2811L69.594 54.7421C69.6054 54.7541 69.6189 54.7741 69.6292 54.7721C69.6696 54.7691 69.7286 54.7701 69.7462 54.7461C69.8114 54.6561 69.8673 54.5591 69.9191 54.4611C70.2876 53.7741 70.6178 53.0711 70.9097 52.3501C70.9573 52.2321 71.0039 52.1151 71.0587 52.0011C71.0691 51.9781 71.1094 51.9541 71.1363 51.9541C71.157 51.9541 71.1871 51.9861 71.1984 52.0101C71.2688 52.1531 71.3268 52.3021 71.4055 52.4401C71.5711 52.7291 71.7315 53.0221 71.922 53.2961C72.1984 53.6921 72.6 53.9311 73.0761 54.0441C73.2976 54.0961 73.5243 54.1321 73.751 54.1561C74.6784 54.2501 75.61 54.2491 76.5406 54.2691C76.7165 54.2721 76.8128 54.2031 76.8822 54.0611C77.0912 53.6341 77.3107 53.2111 77.5156 52.7811C78.5794 50.5431 79.3918 48.2014 79.9388 45.7961C80.1883 44.7021 80.4129 43.6041 80.5371 42.4892C80.6282 41.6742 80.7307 40.8592 80.7886 40.0412C80.8393 39.3352 80.8331 38.6242 80.8518 37.9142ZM53.9589 90.674C55.5354 90.662 56.9369 90.643 58.3343 90.469C59.4037 90.3443 60.4564 90.1103 61.4747 89.771C61.5825 89.7345 61.6868 89.689 61.7863 89.635C61.8836 89.581 61.924 89.456 61.8971 89.344C61.8839 89.29 61.853 89.2417 61.8089 89.2061C61.7649 89.1706 61.7101 89.1499 61.6528 89.147C61.5717 89.1465 61.4908 89.1545 61.4116 89.171C60.2264 89.394 59.0423 89.625 57.8374 89.724C57.1542 89.781 56.4711 89.852 55.7869 89.87C54.4156 89.9088 53.0432 89.8922 51.6734 89.82C50.5652 89.7617 49.4584 89.6804 48.3538 89.576C47.1531 89.461 45.9566 89.295 44.761 89.138C43.0645 88.9099 41.3766 88.625 39.7004 88.284C36.3298 87.6022 33.0198 86.666 29.8008 85.484C28.0432 84.843 26.3228 84.123 24.6791 83.238C24.4514 83.115 24.2237 82.991 23.997 82.864C23.8724 82.7875 23.7274 82.7479 23.5798 82.75C23.3428 82.76 23.1968 82.945 23.2424 83.173C23.2641 83.2832 23.3299 83.3806 23.4256 83.444C23.5312 83.516 23.644 83.581 23.7568 83.645C24.7432 84.2027 25.7616 84.7055 26.8073 85.151C28.9106 86.059 31.0729 86.813 33.2683 87.482C35.7727 88.2489 38.3244 88.8632 40.9084 89.321C41.9507 89.504 42.9951 89.685 44.0416 89.846C44.8304 89.967 45.6243 90.063 46.4182 90.156C47.1469 90.241 47.8777 90.314 48.6085 90.378C49.6156 90.466 50.6238 90.56 51.633 90.616C52.4642 90.663 53.2975 90.659 53.9589 90.674ZM93.4862 89.212C93.6052 89.182 93.6994 89.158 93.7946 89.136C95.0137 88.8427 96.2134 88.4791 97.3874 88.047C101.075 86.708 104.626 85.081 108.091 83.276C109.285 82.654 110.457 81.999 111.572 81.251C111.733 81.144 111.89 81.03 112.048 80.917C112.099 80.88 112.15 80.839 112.195 80.793C112.323 80.657 112.345 80.451 112.25 80.312C112.156 80.174 111.953 80.131 111.77 80.222C111.669 80.2739 111.573 80.3334 111.482 80.4C110.782 80.893 110.051 81.34 109.302 81.76C106.477 83.346 103.546 84.732 100.558 86.007C98.7817 86.765 96.9599 87.416 95.1402 88.068C94.6051 88.26 94.0679 88.447 93.5348 88.645C93.4317 88.6875 93.3368 88.7467 93.2543 88.82C93.1808 88.881 93.1829 89.013 93.2574 89.077C93.3268 89.136 93.4168 89.172 93.4862 89.212ZM88.9721 58.1091C89.3716 58.1191 89.9265 58.1371 90.4813 58.1461C90.6262 58.1491 90.7721 58.1361 90.916 58.1151C91.003 58.1021 91.0361 57.9311 90.9647 57.8771C90.9157 57.8368 90.86 57.8047 90.8001 57.7821C90.5502 57.7069 90.2897 57.6698 90.0279 57.6721C88.6241 57.6424 87.2197 57.6824 85.8202 57.7921C85.3824 57.8281 84.9456 57.8821 84.5088 57.9371C84.0399 57.9971 83.573 58.0871 83.1031 58.1231C82.6807 58.1627 82.2551 58.161 81.833 58.1181C81.0051 58.019 80.2011 57.7825 79.4564 57.4191C79.0362 57.2121 78.646 56.9491 78.2412 56.7131C77.9349 56.5331 77.6295 56.3511 77.319 56.1791C77.2051 56.1161 77.1316 56.1561 77.0509 56.2991C76.965 56.4471 76.9733 56.4951 77.1016 56.5711C77.4473 56.7791 77.8034 56.9731 78.1388 57.1971C79.0404 57.7992 80.0552 58.2252 81.1261 58.4511C81.5577 58.5441 81.9904 58.6011 82.4334 58.6071C82.9095 58.6121 83.3784 58.5551 83.8442 58.4771C84.8907 58.3031 85.9476 58.2331 87.0044 58.1621C87.6068 58.1211 88.2123 58.1271 88.9721 58.1091ZM54.1856 65.2561C54.906 65.2771 55.6999 65.1781 56.4866 65.0361C56.9669 64.9491 57.4368 64.8131 57.9099 64.6921C58.0382 64.6591 58.0724 64.5981 58.0486 64.4851C58.0258 64.3771 57.9968 64.2701 57.9689 64.1631C57.9088 63.9351 57.8943 63.9241 57.6801 63.9841C56.6895 64.2611 55.6823 64.4401 54.6534 64.5301C53.4803 64.6301 52.2981 64.5296 51.161 64.2331C50.3174 64.0181 49.537 63.6631 48.7969 63.2211C48.6727 63.1471 48.5391 63.0881 48.4066 63.0281C48.3859 63.0181 48.3373 63.0341 48.3218 63.0531C48.3093 63.0691 48.3156 63.1191 48.3321 63.1341C48.7089 63.4611 49.0763 63.7981 49.4686 64.1061C49.8485 64.4041 50.2543 64.6711 50.6507 64.9501C50.747 65.0181 50.8422 65.0731 50.9292 64.9231C50.9509 64.8861 51.042 64.8741 51.102 64.8731C51.1652 64.8731 51.2293 64.8981 51.2925 64.9131C52.2137 65.1501 53.1495 65.2641 54.1856 65.2561ZM53.8502 69.1591C53.8947 69.1301 53.9755 69.1051 53.9817 69.0691C53.9889 69.0161 53.9485 68.9521 53.9165 68.9001C53.904 68.8781 53.8626 68.8681 53.8326 68.8571C53.7713 68.8348 53.7092 68.8148 53.6463 68.7971C52.1102 68.3771 50.7108 67.6731 49.3682 66.8541C47.9802 66.0071 46.7526 64.9741 45.6367 63.8141C45.3158 63.4811 45.3779 63.4621 44.8397 63.6481C44.8246 63.6534 44.8097 63.6594 44.7952 63.6661C44.7362 63.6921 44.7113 63.7721 44.7548 63.8231C44.8573 63.9461 44.9598 64.0691 45.0705 64.1841C45.5805 64.7163 46.1218 65.2198 46.6915 65.6921C48.4894 67.1771 50.5079 68.2711 52.7882 68.8991C53.1319 68.9931 53.4828 69.0691 53.8502 69.1591ZM58.2939 84.868L58.2949 84.894C59.0122 84.858 59.7285 84.822 60.4459 84.784C61.1135 84.749 61.7822 84.718 62.4488 84.67C62.6579 84.656 62.8669 84.606 63.0709 84.552C63.2344 84.509 63.3441 84.363 63.3245 84.243C63.3176 84.1795 63.29 84.1197 63.2457 84.0723C63.2015 84.0249 63.1428 83.9922 63.0781 83.979C62.9207 83.9395 62.7593 83.917 62.5968 83.912C62.1734 83.913 61.749 83.926 61.3246 83.946C60.3796 83.991 59.4356 84.054 58.4895 84.09C57.854 84.114 57.2174 84.102 56.5798 84.108C56.4835 84.109 56.381 84.108 56.2899 84.134C56.2268 84.1515 56.1696 84.1847 56.124 84.2305C56.0785 84.2762 56.0462 84.3327 56.0306 84.3943C56.0149 84.4559 56.0164 84.5204 56.0349 84.5813C56.0533 84.6422 56.0881 84.6973 56.1357 84.741C56.2056 84.8058 56.2939 84.8489 56.3893 84.865C56.615 84.896 56.8437 84.915 57.0714 84.913C57.4793 84.908 57.8861 84.884 58.2939 84.868ZM63.3576 56.3431C63.31 56.3811 63.2386 56.4191 63.1971 56.4771C63.1736 56.5104 63.1644 56.5513 63.1715 56.5911C63.1787 56.6309 63.2016 56.6664 63.2354 56.6901C63.3524 56.7721 63.4797 56.8471 63.6132 56.8981C63.8254 56.9781 64.047 57.0341 64.2643 57.1021C65.393 57.4472 66.3846 58.1193 67.1046 59.0271C67.4038 59.4011 67.6833 59.7901 67.9493 60.1861C68.294 60.7021 68.6097 61.2361 68.9502 61.7561C69.5164 62.6191 70.27 63.3141 71.0991 63.9371C71.2129 64.0241 71.3465 64.0891 71.4759 64.1551C71.5327 64.1855 71.5973 64.1997 71.6622 64.1961C71.7191 64.1901 71.7926 64.1561 71.8185 64.1121C71.8443 64.0691 71.8423 63.9771 71.8102 63.9421C71.7139 63.8381 71.6032 63.7431 71.4872 63.6591C70.4739 62.9191 69.6147 62.0441 68.9875 60.9691C68.884 60.7901 68.7743 60.6141 68.6604 60.4411C68.3612 59.9911 68.0735 59.5311 67.7536 59.0941C66.91 57.9401 65.8097 57.1091 64.4072 56.6721C64.1132 56.5801 63.8223 56.4771 63.5294 56.3801C63.4839 56.3651 63.4352 56.3601 63.3576 56.3431ZM105.798 60.4251H105.696C105.608 60.4351 105.542 60.4751 105.512 60.5571C105.497 60.6019 105.499 60.6504 105.517 60.6941C105.534 60.7379 105.568 60.7743 105.61 60.7971C105.668 60.8271 105.727 60.8571 105.79 60.8711C106.82 61.1181 107.814 61.4741 108.797 61.8501C111.084 62.7241 113.141 63.9401 114.778 65.7481C114.819 65.7968 114.865 65.8417 114.915 65.8821C114.982 65.9351 115.063 65.9531 115.14 65.9051C115.158 65.8951 115.174 65.8816 115.186 65.8656C115.198 65.8495 115.207 65.8312 115.211 65.8118C115.216 65.7924 115.216 65.7723 115.212 65.7527C115.209 65.7331 115.201 65.7145 115.189 65.6981C115.045 65.4711 114.911 65.2331 114.733 65.0311C114.51 64.7794 114.267 64.5462 114.004 64.3341C112.541 63.1601 110.959 62.1691 109.174 61.5091C108.352 61.2061 107.519 60.9331 106.69 60.6521C106.475 60.5801 106.252 60.5291 106.032 60.4721C105.938 60.4471 105.842 60.4341 105.798 60.4251ZM78.5776 67.2511C78.5601 67.2161 78.5445 67.1261 78.4886 67.0851C78.3207 66.9624 78.144 66.8514 77.9597 66.7531C77.0498 66.2691 76.0986 65.8531 75.2757 65.2261C75.2104 65.1807 75.1354 65.15 75.0563 65.1361C74.9724 65.1191 74.8865 65.1521 74.8534 65.2301C74.8305 65.2874 74.8309 65.351 74.8544 65.4081C74.8875 65.4751 74.9455 65.5391 75.0086 65.5841C75.256 65.7621 75.4972 65.9551 75.7643 66.1001C76.5437 66.5211 77.3345 66.9231 78.1222 67.3301C78.2071 67.3731 78.3044 67.3951 78.3975 67.4201C78.4648 67.4381 78.5683 67.3601 78.5776 67.2511ZM73.4612 55.9371C73.7717 55.9651 74.1919 55.9981 74.6101 56.0421C74.901 56.0731 75.1898 56.1171 75.4786 56.1551C75.6049 56.1721 75.7011 56.1351 75.7612 56.0221C75.7912 55.9671 75.8253 55.9121 75.846 55.8541C75.8533 55.8341 75.8346 55.7901 75.816 55.7811C75.7591 55.7513 75.6976 55.7304 75.6338 55.7191C75.1194 55.6501 74.606 55.5701 74.0895 55.5251C73.7168 55.4986 73.3429 55.4919 72.9695 55.5051C72.8101 55.5071 72.6507 55.5551 72.4934 55.5901C72.4459 55.5999 72.4034 55.6254 72.3733 55.6621C72.3402 55.7111 72.305 55.7781 72.3153 55.8301C72.3257 55.8811 72.3816 55.9441 72.4323 55.9631C72.5091 55.9851 72.5896 55.9922 72.6693 55.9841C72.896 55.9741 73.1227 55.9571 73.4612 55.9371ZM52.723 49.9221C52.7116 49.8961 52.7064 49.8581 52.6857 49.8491C52.6661 49.8401 52.6329 49.8611 52.605 49.8691L52.6526 49.9671C52.6754 49.9511 52.7002 49.9371 52.723 49.9221Z" fill="black"/>
<path d="M31.4407 37.4272C31.7887 37.3992 32.0701 37.3723 32.3515 37.3543C32.4947 37.3453 32.5524 37.4062 32.5385 37.555C32.4967 38.0104 32.447 38.4637 32.3993 38.9181C32.3535 39.3574 32.2958 39.7948 32.26 40.2342C32.1533 41.6171 32.1105 43.0043 32.1318 44.3912C32.1417 45.26 32.1875 46.1247 32.263 46.9875C32.3804 48.3386 32.5743 49.6787 32.8368 51.0087C33.3329 53.5331 34.0588 55.9916 34.9228 58.4121C35.4598 59.915 36.1359 61.3519 37.0159 62.686C37.1322 62.8618 37.1352 62.9966 37.0179 63.1533C37.0079 63.1663 37.001 63.1803 36.993 63.1933C36.9125 63.3211 36.8667 63.3401 36.7206 63.3121C36.3666 63.2442 36.0136 63.1723 35.6586 63.1104C35.2579 63.0405 34.8751 63.1184 34.5142 63.2901C34.273 63.4045 34.0383 63.5322 33.8112 63.6726C33.3389 63.9642 32.8417 64.0021 32.3157 63.8663C31.5551 63.6686 30.8243 63.379 30.0944 63.0964C28.5433 62.4943 26.9991 61.8782 25.4519 61.266C24.0072 60.6939 22.5267 60.2215 21.06 59.7123C19.4592 59.1571 17.8583 58.6029 16.2396 58.1046C15.2502 57.8 14.2609 57.4945 13.2785 57.1669C12.7137 56.9792 12.1619 56.7505 11.608 56.5328C11.3445 56.429 11.095 56.2892 10.8285 56.1993C10.1454 55.9696 9.57266 55.5602 9.01882 55.1169C8.2532 54.5047 7.59496 53.7888 6.9765 53.0298C6.6782 52.6644 6.36698 52.3089 6.05178 51.9584C5.84848 51.7393 5.67586 51.4934 5.5387 51.2274C4.56527 49.2822 3.67933 47.3001 2.99027 45.234C2.50206 43.7691 2.15504 42.2663 1.89354 40.7434C1.56541 38.8242 1.4799 36.893 1.5137 34.9507C1.53359 33.8453 1.61512 32.7459 1.74637 31.6515C1.98501 29.6464 2.38871 27.6732 2.94652 25.733C4.16357 21.505 5.99908 17.5706 8.50974 13.9598C9.97091 11.8469 11.6702 9.91046 13.5738 8.18909C15.2201 6.7007 17.0449 5.42433 19.0058 4.38954C19.7286 4.00808 20.4446 3.62064 21.2102 3.33205C21.8127 3.10637 22.4183 2.88869 23.0507 2.76287C23.2346 2.72692 23.4285 2.72292 23.6055 2.666C24.0758 2.51622 24.5362 2.56615 24.9876 2.72092C25.2173 2.80081 25.443 2.82278 25.6806 2.79782C25.7741 2.78783 25.8696 2.78783 25.963 2.77984C28.4061 2.5981 30.5399 3.33804 32.3774 4.95672C33.5139 5.95829 34.376 7.17055 35.074 8.50863C35.7978 9.89864 36.3099 11.3685 36.6659 12.8924C36.8369 13.6273 36.9632 14.3742 37.1103 15.1152C37.1573 15.3165 37.1341 15.528 37.0447 15.7143C36.9542 15.896 36.8628 16.0778 36.7683 16.2585C36.7623 16.2685 36.7017 16.2675 36.6977 16.2585C36.6809 16.2148 36.6695 16.1692 36.6639 16.1227C36.5319 15.1075 36.3454 14.1001 36.1051 13.105C35.7173 11.5553 35.1843 10.0624 34.4098 8.66141C33.851 7.64886 33.1828 6.7182 32.3495 5.91435C31.3115 4.91378 30.1123 4.19082 28.7123 3.82534C28.0761 3.65032 27.4192 3.56264 26.7595 3.56472C26.7296 3.56472 26.6998 3.5787 26.67 3.58569C26.6849 3.62363 26.6909 3.67057 26.7177 3.69653C26.7843 3.76343 26.8629 3.81636 26.9315 3.88226C27.1005 4.04503 27.2725 4.2078 27.4346 4.37855C27.6733 4.63019 27.8443 4.92577 28.0153 5.22933C28.6497 6.35572 28.9291 7.56598 28.948 8.84914C28.9639 9.91362 28.7879 10.9511 28.5105 11.9747C28.1774 13.2089 27.71 14.3942 27.2039 15.5655C26.3547 17.5141 25.4259 19.4266 24.4198 21.2983C22.998 23.9645 21.5532 26.6207 20.1214 29.2809C19.8678 29.7532 19.6402 30.2385 19.5049 30.7598C19.4612 30.9255 19.4413 31.0993 19.4254 31.271C19.4138 31.3973 19.432 31.5246 19.4785 31.6426C19.5249 31.7605 19.5984 31.8659 19.6928 31.9501C19.8062 32.0589 19.9275 32.1597 20.0548 32.2516C20.2964 32.4254 20.546 32.5901 20.7926 32.7579C22.4899 33.9162 23.8163 35.3991 24.7171 37.2574L24.8852 37.597C25.1019 38.0423 25.0035 38.0333 25.5971 37.9564C26.313 37.8656 27.0279 37.7727 27.7448 37.7008C28.5105 37.6239 29.2761 37.571 30.0417 37.5071C30.2406 37.4911 30.2704 37.4681 30.3082 37.2515C30.3559 36.9719 30.3947 36.6913 30.4325 36.4107C30.6426 34.8973 30.942 33.3978 31.3294 31.9201C32.1318 28.8125 33.2593 25.8288 34.7707 22.9969C36.5853 19.5918 38.8554 16.5341 41.6852 13.9099C44.3898 11.4035 47.4393 9.44629 50.9025 8.16413C51.4753 7.95243 52.0619 7.77668 52.6436 7.58995C52.7328 7.56259 52.8257 7.54912 52.919 7.55001C53.0264 7.55001 53.1268 7.64587 53.1537 7.74972C53.1845 7.86655 53.1676 7.98339 53.0702 8.04929C52.9697 8.11919 52.8494 8.16213 52.7321 8.20207C52.2121 8.37882 51.6861 8.53659 51.171 8.72532C48.6464 9.652 46.3307 10.9621 44.1979 12.5998C41.363 14.7767 39.0075 17.3969 37.0447 20.3806C34.9 23.64 33.3279 27.1639 32.2451 30.9115C31.7482 32.6198 31.3655 34.3595 31.0997 36.1191C31.047 36.4776 30.9863 36.8351 30.9366 37.1935C30.9108 37.3783 30.9565 37.4262 31.1295 37.4272H31.4407ZM2.13118 34.4135H2.11029C2.11029 34.8229 2.1093 35.2323 2.11129 35.6428C2.11129 35.6887 2.13118 35.7336 2.14311 35.7786C2.19979 35.7586 2.2664 35.7526 2.31214 35.7187C2.48714 35.5838 2.65021 35.4361 2.8262 35.3042C2.90774 35.2423 2.99822 35.1205 3.10461 35.1944C3.15632 35.2313 3.15235 35.3692 3.15036 35.46C3.1245 36.8201 3.28459 38.1641 3.49539 39.5042C3.61073 40.2352 3.72407 40.9651 3.72407 41.7111C3.72407 42.1814 3.76882 42.6557 3.81655 43.125C3.94183 44.3483 4.16356 45.5556 4.41711 46.7588C4.53246 47.306 4.81583 47.7394 5.13799 48.1668C5.16285 48.1998 5.22848 48.1778 5.24737 48.1309C5.26328 48.0879 5.28118 48.044 5.29411 47.9991C5.42635 47.5148 5.5576 47.0285 5.69184 46.5441C5.70959 46.4845 5.73289 46.4266 5.76144 46.3714C5.83701 46.2176 5.92052 46.0668 5.9941 45.911C6.39382 45.0623 6.89596 44.2874 7.60093 43.6593C8.72153 42.6597 10.0271 42.3212 11.4917 42.5968C11.8288 42.6607 12.1499 42.8135 12.487 42.8674C12.7505 42.9094 12.9583 43.0232 13.1632 43.171C13.3421 43.2998 13.5231 43.4236 13.7021 43.5504C14.6653 44.2355 15.4942 45.0934 16.1471 46.0808C16.8282 47.0943 17.3264 48.1958 17.7251 49.3461C18.098 50.4166 18.3943 51.51 18.6796 52.6075C18.9223 53.5361 19.1698 54.4648 19.4244 55.3895C19.5457 55.8308 19.7088 56.2562 19.9136 56.6676C20.2019 57.2458 20.6484 57.6422 21.2559 57.8519C21.5661 57.9588 21.8823 58.0556 22.1985 58.1445C24.1017 58.6738 26.0316 59.1002 27.9527 59.5565C28.243 59.6254 28.5343 59.6823 28.8267 59.7412C28.8993 59.7562 28.9529 59.6943 28.9261 59.6334C28.9135 59.6048 28.8996 59.5768 28.8843 59.5495C28.4737 58.8205 28.1734 58.0417 27.887 57.2568C27.2556 55.5243 26.7595 53.7518 26.3061 51.9654C25.9722 50.6694 25.7346 49.3503 25.5951 48.019C25.5544 47.6126 25.5852 47.1992 25.4738 46.7988C25.4558 46.7054 25.4565 46.6093 25.4758 46.5162C25.5414 46.0658 25.5792 45.6075 25.6876 45.1681C25.8596 44.4671 25.9073 43.7721 25.7622 43.0641C25.7433 42.9723 25.7423 42.8764 25.7343 42.7825C25.7025 42.453 25.6767 42.1235 25.6359 41.7939C25.619 41.6561 25.6021 41.4984 25.5285 41.3875C25.3635 41.1419 25.3187 40.8673 25.272 40.5887C25.1869 40.0435 25.0342 39.5111 24.8176 39.0039C24.6098 38.5276 24.4049 38.0503 24.1832 37.581C23.4484 36.0282 22.3815 34.744 21.0292 33.6965C20.6941 33.4369 20.3332 33.2122 19.9892 32.9626C19.7485 32.7878 19.5019 32.6151 19.2852 32.4114C18.8775 32.0289 18.7303 31.5496 18.8198 30.9934C18.8715 30.6826 18.9555 30.378 19.0704 30.0847C19.32 29.4357 19.6541 28.8295 19.9852 28.2204C21.0431 26.2702 22.113 24.326 23.159 22.3678C24.3154 20.2009 25.4331 18.015 26.4343 15.7702C26.9275 14.6628 27.3809 13.5394 27.7468 12.3821C28.1595 11.079 28.3872 9.75285 28.3027 8.38082C28.2653 7.71918 28.1296 7.06688 27.9 6.44559C27.4406 5.21336 26.6541 4.26671 25.4569 3.69553C24.7331 3.34903 23.9804 3.18326 23.174 3.364C22.6678 3.47784 22.1767 3.63362 21.6894 3.81037C20.9646 4.07299 20.2785 4.41949 19.5875 4.75801C18.2571 5.40907 16.9903 6.16 15.8299 7.08467C15.462 7.37925 15.1011 7.68381 14.7401 7.98838C12.8757 9.56261 11.1976 11.3468 9.73872 13.3058C7.32053 16.5451 5.47507 20.094 4.16058 23.9216C3.52345 25.7674 3.03108 27.6605 2.68799 29.5834C2.5289 30.4822 2.40561 31.3879 2.29822 32.2946C2.21868 32.9975 2.18587 33.7065 2.13118 34.4135Z" fill="black"/>
<path d="M33.1917 43.3886C33.2365 42.5498 33.2792 41.5423 33.3498 40.5367C33.4065 39.7359 33.488 38.936 33.5755 38.1382C33.6143 37.7797 33.6899 37.4252 33.7555 37.0697C33.9017 36.2808 34.0409 35.49 34.2039 34.7041C34.7405 32.1435 35.5327 29.6438 36.5684 27.2428C37.6623 24.6759 39.043 22.2421 40.6839 19.9882C42.7909 17.1063 45.2697 14.6019 48.2039 12.5648C49.792 11.4614 51.4938 10.533 53.2799 9.79576C53.4101 9.7438 53.5465 9.70922 53.6856 9.69291C53.8199 9.67693 53.9352 9.77279 53.969 9.89462C53.9849 9.94815 53.9832 10.0054 53.9642 10.0579C53.9452 10.1104 53.91 10.1554 53.8636 10.1862C53.7642 10.2601 53.6508 10.32 53.5355 10.3659C52.1743 10.9062 50.8856 11.5892 49.6447 12.3631C48.2465 13.2405 46.9267 14.2381 45.7003 15.3448C42.9828 17.7843 40.7684 20.6272 38.9727 23.8047C37.0924 27.1299 35.76 30.6699 34.9069 34.3935C34.724 35.1904 34.5867 35.9982 34.4306 36.8021C34.4187 36.864 34.4137 36.9269 34.4068 36.9898C34.374 37.3024 34.3839 37.3163 34.6842 37.3273C34.9188 37.3373 35.1545 37.3373 35.3892 37.3493C35.5701 37.3593 35.6099 37.4132 35.584 37.5859C35.4936 38.1781 35.3911 38.7673 35.3156 39.3614C35.2201 40.1268 35.1346 40.8935 35.059 41.6611C34.9258 42.9972 34.9487 44.3383 34.9875 45.6774C35.0203 46.8257 35.0899 47.9741 35.2301 49.1174C35.7018 52.9897 36.8845 56.7405 38.7181 60.1796C39.264 61.2081 39.8487 62.2167 40.4154 63.2332C40.4463 63.2881 40.4831 63.3401 40.5149 63.393L40.7734 63.8343C40.6143 63.9682 40.4224 63.9052 40.2454 63.9192C40.1052 63.9292 39.962 63.9003 39.8218 63.9152C39.5424 63.9452 39.3525 63.8154 39.1686 63.6217C38.4461 62.8528 37.8258 61.9932 37.3231 61.0643C36.7506 60.0133 36.265 58.9169 35.8714 57.786C35.3046 56.1663 34.7786 54.5347 34.374 52.8641C33.9889 51.305 33.6954 49.7245 33.495 48.1308C33.3747 47.1463 33.2792 46.1577 33.2623 45.1631C33.2534 44.6289 33.2205 44.0946 33.1917 43.3886ZM37.4404 17.7504C37.4116 17.9361 37.3887 18.1228 37.3509 18.3056C37.331 18.3807 37.2962 18.451 37.2485 18.5123C37.161 18.6311 36.9552 18.6231 36.8886 18.4923C36.8339 18.3835 36.7762 18.2576 36.7792 18.1408C36.7852 17.8912 36.823 17.6415 36.8608 17.3949C36.8787 17.28 36.9602 17.2022 37.0775 17.1712C37.2674 17.1203 37.4355 17.2291 37.4444 17.4208C37.4494 17.5287 37.4345 17.6385 37.4285 17.7484L37.4404 17.7504ZM71.123 36.869C71.0922 37.1685 71.0643 37.4631 71.0266 37.7567C71.0121 37.833 70.9834 37.9058 70.9421 37.9714C70.8804 38.0753 70.779 38.1102 70.6617 38.0962C70.5602 38.0842 70.4827 38.0263 70.4528 37.9335C70.422 37.8464 70.4085 37.7541 70.4131 37.6618C70.433 37.3972 70.4618 37.1336 70.4996 36.873C70.5175 36.7501 70.5572 36.6293 70.604 36.5155C70.6467 36.4106 70.7293 36.3357 70.8546 36.3407C70.958 36.3447 71.0375 36.4236 71.0723 36.5504C71.0842 36.5954 71.0962 36.6403 71.1031 36.6872C71.1131 36.7481 71.1171 36.8111 71.123 36.869Z" fill="black"/>
</svg>
